<svg width="1440" height="1024" viewBox="0 0 1440 1024" fill="none" xmlns="http://www.w3.org/2000/svg">
<rect width="1440" height="1024" fill="white"/>
<g filter="url(#filter0_d_42_72)">
<path d="M269.842 513.413L269.823 527.603L239.121 527.562L232.438 508.977C225.376 516.192 217.715 521.514 209.455 524.943C201.366 528.372 192.248 530.08 182.1 530.067C165.588 530.045 153.38 526.847 145.477 520.472C137.573 514.098 133.631 503.773 133.65 489.497C133.67 474.361 138.414 463.445 147.883 456.749C157.352 449.882 172.579 446.462 193.563 446.49C201.819 446.501 209.042 447.284 215.231 448.841C221.594 450.225 226.751 451.952 230.705 454.021L230.718 443.959C230.728 436.047 229.705 429.94 227.646 425.637C225.76 421.162 222.238 417.976 217.081 416.077C212.096 414.006 204.787 412.965 195.155 412.952C177.783 412.929 159.72 414.969 140.967 419.072L140.991 400.496C160.089 396.393 178.324 394.354 195.696 394.377C211.864 394.398 223.987 396.048 232.067 399.327C240.319 402.606 245.73 407.343 248.302 413.538C251.046 419.734 252.411 428.336 252.396 439.344L252.308 505.65L269.842 513.413ZM156.356 487.979C156.344 496.407 158.4 502.429 162.524 506.047C166.819 509.665 174.557 511.481 185.736 511.496C193.992 511.506 201.906 510.055 209.478 507.141C217.222 504.055 224.28 499.851 230.651 494.527L230.685 468.727C221.057 465.962 209.449 464.571 195.861 464.553C180.897 464.533 170.574 466.411 164.893 470.188C159.212 473.964 156.366 479.895 156.356 487.979ZM465.497 513.672L465.478 527.862L426.262 527.81L426.375 442.412C426.388 432.264 423.904 424.951 418.922 420.472C414.112 415.822 406.977 413.49 397.517 413.478C391.497 413.47 385.562 414.236 379.712 415.776C374.034 417.317 365.688 420.058 354.675 423.999L354.567 505.785L374.681 513.552L374.662 527.742L315.322 527.663L315.341 513.473L332.895 505.756L333.008 420.1L315.474 412.853L315.493 398.147L344.131 398.185L350.825 408.772C360.464 403.797 369.585 400.197 378.188 397.972C386.791 395.748 395.564 394.641 404.508 394.653C415.344 394.667 423.942 396.399 430.301 399.847C436.661 403.124 441.212 408.462 443.954 415.861C446.696 423.089 448.059 432.895 448.043 445.279L447.963 505.909L465.497 513.672ZM647.409 513.913L647.39 528.103L616.688 528.062L610.004 509.477C602.943 516.692 595.282 522.014 587.021 525.443C578.933 528.872 569.814 530.58 559.666 530.567C543.154 530.545 530.947 527.347 523.043 520.972C515.14 514.598 511.197 504.272 511.216 489.996C511.236 474.86 515.981 463.945 525.449 457.249C534.919 450.382 550.145 446.962 571.129 446.99C579.385 447.001 586.608 447.784 592.798 449.34C599.16 450.725 604.318 452.452 608.271 454.521L608.284 444.459C608.295 436.547 607.271 430.44 605.213 426.137C603.327 421.662 599.805 418.476 594.647 416.577C589.662 414.506 582.353 413.465 572.721 413.452C555.35 413.429 537.287 415.469 518.533 419.572L518.558 400.996C537.655 396.893 555.89 394.853 573.262 394.876C589.43 394.898 601.554 396.548 609.634 399.827C617.885 403.106 623.297 407.843 625.869 414.038C628.613 420.234 629.977 428.836 629.963 439.844L629.875 506.15L647.409 513.913ZM533.922 488.478C533.911 496.906 535.967 502.929 540.09 506.547C544.385 510.164 552.123 511.981 563.303 511.995C571.559 512.006 579.473 510.555 587.045 507.641C594.789 504.555 601.846 500.35 608.218 495.027L608.252 469.227C598.623 466.462 587.015 465.071 573.427 465.053C558.463 465.033 548.141 466.911 542.46 470.688C536.779 474.464 533.933 480.395 533.922 488.478ZM725.583 506.276L743.116 514.039L743.098 528.229L686.338 528.154L686.356 513.964L703.911 506.248L704.095 366.928L686.561 359.68L686.58 344.974L725.796 345.026L725.583 506.276ZM938.518 398.972L938.499 413.42L917.334 420.616L860.147 547.734C855.834 557.533 851.008 565.094 845.669 570.419C840.502 575.916 833.875 579.864 825.788 582.261C817.872 584.831 807.551 586.107 794.823 586.09L789.663 586.083L789.688 566.991C796.223 567.516 802.501 567.782 808.521 567.79C815.057 567.799 820.218 566.946 824.004 565.231C827.963 563.516 831.837 559.909 835.629 554.41C839.592 549.083 844.333 540.489 849.853 528.629L800.46 420.461L779.313 413.209L779.333 398.761L845.123 398.848L845.103 413.296L824.196 420.235L861.238 503.618L897.984 420.332L877.095 413.339L877.115 398.891L938.518 398.972ZM1049.31 455.363C1061.18 457.615 1070.03 460.12 1075.88 462.88C1081.72 465.64 1085.67 469.257 1087.73 473.732C1089.79 478.034 1090.81 484.142 1090.8 492.054C1090.79 501.858 1088.97 509.681 1085.35 515.525C1081.9 521.196 1075.71 525.402 1066.76 528.142C1057.98 530.882 1045.51 532.242 1029.34 532.22C1021.09 532.209 1013.09 531.769 1005.35 530.899C997.612 530.2 988.24 528.898 977.234 526.991L977.284 489.839L992.764 489.86L1000.22 511.8C1009.33 513.36 1019.31 514.147 1030.14 514.161C1040.81 514.176 1048.8 513.67 1054.14 512.645C1059.47 511.448 1063.09 509.561 1064.98 506.984C1067.05 504.234 1068.09 500.28 1068.09 495.12C1068.1 490.476 1067.16 487.034 1065.27 484.796C1063.38 482.385 1060.54 480.662 1056.76 479.625C1053.15 478.588 1046.79 477.375 1037.67 475.987L1020.13 472.868C1007.93 470.616 998.726 468.11 992.538 465.35C986.35 462.589 981.969 458.886 979.395 454.238C976.993 449.419 975.798 442.709 975.809 434.109C975.822 424.649 977.466 417.17 980.741 411.67C984.188 406.171 990.042 402.136 998.301 399.567C1006.56 396.826 1018.17 395.466 1033.14 395.485C1048.1 395.505 1065.81 397.249 1086.28 400.716L1086.23 436.578L1071.27 436.558L1064.33 416.425C1052.98 414.518 1042.23 413.557 1032.08 413.544C1023.14 413.532 1016.26 414.125 1011.44 415.323C1006.62 416.52 1003.26 418.408 1001.37 420.985C999.473 423.563 998.522 427.26 998.516 432.076C998.51 436.892 999.537 440.505 1001.6 442.916C1003.66 445.154 1007.01 446.965 1011.65 448.347C1016.29 449.557 1024.38 451.116 1035.9 453.023C1040.2 453.545 1044.67 454.325 1049.31 455.363ZM1198.69 530.897C1182.18 530.875 1170.31 527.505 1163.1 520.787C1156.05 514.07 1152.54 502.714 1152.56 486.718L1152.66 417.316L1132.53 417.289L1132.55 402.841L1152.68 399.256L1160.47 361.856L1174.4 361.874L1174.35 399.284L1218.47 399.601L1218.45 417.661L1174.33 417.344L1174.24 486.746C1174.23 493.798 1175.08 499.131 1176.8 502.746C1178.51 506.36 1181.35 508.858 1185.3 510.239C1189.25 511.62 1195.01 512.316 1202.58 512.326C1208.43 512.334 1214.54 511.74 1220.9 510.544L1220.88 528.604C1214.69 530.144 1207.29 530.908 1198.69 530.897Z" fill="white" fill-opacity="0.2" shape-rendering="crispEdges"/>
</g>
<g filter="url(#filter1_d_42_72)">
<path d="M133.381 335.375L119.192 335.208L119.554 304.508L138.208 298.019C131.069 290.711 125.829 282.908 122.486 274.612C119.142 266.488 117.532 257.095 117.658 246.431C117.796 234.736 119.887 225.128 123.932 217.607C128.147 210.26 135.092 204.752 144.768 201.082C154.616 197.413 168.053 195.68 185.08 195.88C209.331 196.166 226.819 201.016 237.544 210.431C248.27 219.846 253.532 233.153 253.329 250.352C253.236 258.263 252.027 265.99 249.702 273.531C247.377 281.072 243.671 289.027 238.584 297.396L280.893 297.894L288.323 280.436L303.028 280.61L302.566 319.823L141.327 317.923L133.381 335.375ZM182.749 218.558C170.882 218.418 161.581 219.427 154.847 221.584C148.111 223.913 143.339 227.469 140.531 232.252C137.894 237.037 136.53 243.3 136.439 251.039C136.251 267.034 141.663 282.149 152.676 296.383L223.363 297.216C227.446 286.428 230.296 278.205 231.91 272.547C233.523 267.062 234.365 261.309 234.436 255.29C234.588 242.391 230.397 233.053 221.865 227.276C213.502 221.673 200.464 218.767 182.749 218.558Z" fill="white" fill-opacity="0.2" shape-rendering="crispEdges"/>
</g>
<g filter="url(#filter2_d_42_72)">
<path d="M122.522 625.24C122.716 608.729 126.21 596.902 133.002 589.757C139.793 582.785 151.186 579.393 167.181 579.581L236.578 580.399L236.815 560.276L251.262 560.446L254.637 580.611L291.953 588.792L291.789 602.723L254.381 602.282L253.604 646.394L235.545 646.181L236.323 602.069L166.925 601.252C159.874 601.169 154.532 601.966 150.9 603.643C147.268 605.32 144.741 608.129 143.318 612.068C141.896 616.008 141.14 621.761 141.051 629.329C140.982 635.176 141.512 641.289 142.641 647.667L124.582 647.454C123.107 641.244 122.42 633.84 122.522 625.24ZM136.355 830.832L122.166 830.665L122.527 799.965L141.181 793.476C134.041 786.339 128.799 778.623 125.457 770.327C122.112 762.203 120.5 753.068 120.619 742.92C120.814 726.409 124.139 714.236 130.596 706.399C137.053 698.563 147.419 694.729 161.694 694.897C176.829 695.075 187.694 699.934 194.29 709.472C201.059 719.012 204.319 734.274 204.072 755.256C203.975 763.512 203.115 770.726 201.495 776.899C200.044 783.247 198.263 788.386 196.153 792.318L206.214 792.436C214.125 792.529 220.243 791.569 224.567 789.556C229.061 787.717 232.284 784.229 234.237 779.091C236.36 774.128 237.478 766.831 237.591 757.199C237.796 739.828 235.945 721.745 232.038 702.95L250.613 703.169C254.515 722.308 256.365 740.563 256.16 757.934C255.969 774.101 254.193 786.207 250.83 794.252C247.465 802.469 242.671 807.831 236.449 810.338C230.225 813.016 221.61 814.291 210.602 814.161L144.301 813.38L136.355 830.832ZM162.974 717.618C154.547 717.518 148.503 719.511 144.843 723.596C141.18 727.854 139.283 735.572 139.151 746.751C139.054 755.006 140.423 762.935 143.258 770.537C146.262 778.313 150.393 785.414 155.649 791.84L181.448 792.144C184.313 782.545 185.826 770.952 185.986 757.365C186.162 742.402 184.392 732.061 180.675 726.341C176.958 720.62 171.058 717.713 162.974 717.618Z" fill="white" fill-opacity="0.2" shape-rendering="crispEdges"/>
</g>
<defs>
<filter id="filter0_d_42_72" x="105.523" y="324.243" width="1157.6" height="312.411" filterUnits="userSpaceOnUse" color-interpolation-filters="sRGB">
<feFlood flood-opacity="0" result="BackgroundImageFix"/>
<feColorMatrix in="SourceAlpha" type="matrix" values="0 0 0 0 0 0 0 0 0 0 0 0 0 0 0 0 0 0 127 0" result="hardAlpha"/>
<feOffset dx="7" dy="15"/>
<feGaussianBlur stdDeviation="17.5"/>
<feComposite in2="hardAlpha" operator="out"/>
<feColorMatrix type="matrix" values="0 0 0 0 0 0 0 0 0 0 0 0 0 0 0 0 0 0 0.1 0"/>
<feBlend mode="normal" in2="BackgroundImageFix" result="effect1_dropShadow_42_72"/>
<feBlend mode="normal" in="SourceGraphic" in2="effect1_dropShadow_42_72" result="shape"/>
</filter>
<filter id="filter1_d_42_72" x="88.6125" y="175.093" width="257.397" height="212.273" filterUnits="userSpaceOnUse" color-interpolation-filters="sRGB">
<feFlood flood-opacity="0" result="BackgroundImageFix"/>
<feColorMatrix in="SourceAlpha" type="matrix" values="0 0 0 0 0 0 0 0 0 0 0 0 0 0 0 0 0 0 127 0" result="hardAlpha"/>
<feOffset dx="7" dy="15"/>
<feGaussianBlur stdDeviation="17.5"/>
<feComposite in2="hardAlpha" operator="out"/>
<feColorMatrix type="matrix" values="0 0 0 0 0 0 0 0 0 0 0 0 0 0 0 0 0 0 0.1 0"/>
<feBlend mode="normal" in2="BackgroundImageFix" result="effect1_dropShadow_42_72"/>
<feBlend mode="normal" in="SourceGraphic" in2="effect1_dropShadow_42_72" result="shape"/>
</filter>
<filter id="filter2_d_42_72" x="91.586" y="538.933" width="242.695" height="343.698" filterUnits="userSpaceOnUse" color-interpolation-filters="sRGB">
<feFlood flood-opacity="0" result="BackgroundImageFix"/>
<feColorMatrix in="SourceAlpha" type="matrix" values="0 0 0 0 0 0 0 0 0 0 0 0 0 0 0 0 0 0 127 0" result="hardAlpha"/>
<feOffset dx="7" dy="15"/>
<feGaussianBlur stdDeviation="17.5"/>
<feComposite in2="hardAlpha" operator="out"/>
<feColorMatrix type="matrix" values="0 0 0 0 0 0 0 0 0 0 0 0 0 0 0 0 0 0 0.1 0"/>
<feBlend mode="normal" in2="BackgroundImageFix" result="effect1_dropShadow_42_72"/>
<feBlend mode="normal" in="SourceGraphic" in2="effect1_dropShadow_42_72" result="shape"/>
</filter>
</defs>
</svg>
