<svg width="1440" height="1024" viewBox="0 0 1440 1024" fill="none" xmlns="http://www.w3.org/2000/svg">
<rect width="1440" height="1024" fill="white"/>
<g filter="url(#filter0_d_42_72)">
<path d="M585.175 315.152L585.161 326.152L561.361 326.121L556.18 311.714C550.706 317.306 544.767 321.432 538.363 324.09C532.093 326.748 525.025 328.072 517.158 328.062C504.358 328.045 494.895 325.566 488.768 320.624C482.641 315.683 479.585 307.679 479.6 296.612C479.615 284.879 483.293 276.417 490.633 271.227C497.974 265.903 509.777 263.252 526.044 263.274C532.444 263.282 538.043 263.89 542.842 265.096C547.773 266.169 551.772 267.508 554.836 269.112L554.847 261.312C554.855 255.179 554.061 250.444 552.465 247.109C551.003 243.64 548.273 241.17 544.275 239.698C540.411 238.093 534.745 237.285 527.278 237.275C513.812 237.258 499.81 238.839 485.272 242.02L485.291 227.62C500.095 224.439 514.231 222.858 527.697 222.876C540.231 222.892 549.629 224.172 555.892 226.713C562.289 229.255 566.484 232.927 568.478 237.73C570.605 242.533 571.663 249.201 571.651 257.734L571.583 309.134L585.175 315.152ZM497.201 295.436C497.193 301.969 498.786 306.638 501.983 309.442C505.312 312.246 511.311 313.654 519.977 313.666C526.377 313.674 532.512 312.549 538.382 310.29C544.385 307.898 549.856 304.639 554.795 300.512L554.821 280.512C547.357 278.369 538.359 277.29 527.825 277.276C516.225 277.261 508.223 278.717 503.82 281.644C499.416 284.572 497.21 289.169 497.201 295.436ZM736.845 315.353L736.831 326.353L706.431 326.313L706.519 260.113C706.529 252.246 704.603 246.577 700.741 243.105C697.013 239.5 691.482 237.693 684.148 237.683C679.482 237.677 674.881 238.271 670.346 239.465C665.944 240.659 659.475 242.784 650.937 245.839L650.853 309.239L666.446 315.26L666.431 326.26L620.431 326.199L620.446 315.199L634.054 309.217L634.141 242.817L620.549 237.199L620.564 225.799L642.764 225.828L647.953 234.035C655.425 230.178 662.495 227.388 669.164 225.663C675.833 223.939 682.634 223.081 689.568 223.09C697.968 223.101 704.632 224.443 709.562 227.117C714.492 229.657 718.02 233.795 720.146 239.531C722.272 245.134 723.328 252.735 723.316 262.335L723.253 309.335L736.845 315.353ZM877.863 315.54L877.848 326.54L854.048 326.508L848.867 312.101C843.393 317.694 837.454 321.819 831.051 324.478C824.78 327.136 817.712 328.46 809.845 328.45C797.045 328.433 787.582 325.953 781.455 321.012C775.328 316.07 772.272 308.066 772.287 297C772.303 285.266 775.98 276.805 783.321 271.614C790.661 266.291 802.465 263.64 818.731 263.661C825.131 263.67 830.73 264.277 835.529 265.483C840.461 266.557 844.459 267.895 847.523 269.499L847.534 261.699C847.542 255.566 846.748 250.832 845.153 247.496C843.691 244.028 840.96 241.557 836.962 240.085C833.098 238.48 827.432 237.673 819.966 237.663C806.499 237.645 792.497 239.226 777.959 242.407L777.978 228.007C792.783 224.827 806.918 223.246 820.385 223.263C832.918 223.28 842.316 224.559 848.58 227.101C854.976 229.643 859.171 233.315 861.165 238.117C863.292 242.92 864.35 249.588 864.339 258.122L864.27 309.522L877.863 315.54ZM789.889 295.823C789.88 302.356 791.474 307.025 794.67 309.829C798 312.634 803.998 314.042 812.664 314.053C819.064 314.062 825.199 312.936 831.069 310.678C837.072 308.286 842.543 305.026 847.482 300.899L847.508 280.899C840.045 278.756 831.046 277.678 820.513 277.664C808.913 277.648 800.911 279.104 796.507 282.032C792.103 284.959 789.897 289.556 789.889 295.823ZM938.463 309.62L952.055 315.638L952.04 326.638L908.04 326.58L908.055 315.58L921.663 309.598L921.806 201.598L908.213 195.98L908.228 184.58L938.628 184.62L938.463 309.62ZM1103.53 226.438L1103.51 237.638L1087.11 243.217L1042.78 341.758C1039.43 349.353 1035.69 355.215 1031.55 359.343C1027.55 363.604 1022.41 366.664 1016.14 368.523C1010 370.515 1002 371.504 992.137 371.491L988.137 371.486L988.157 356.686C993.223 357.092 998.089 357.299 1002.76 357.305C1007.82 357.312 1011.82 356.65 1014.76 355.321C1017.83 353.992 1020.83 351.196 1023.77 346.933C1026.84 342.803 1030.52 336.142 1034.8 326.947L996.507 243.097L980.114 237.475L980.129 226.275L1031.13 226.342L1031.11 237.542L1014.91 242.921L1043.62 307.559L1072.11 242.997L1055.91 237.575L1055.93 226.375L1103.53 226.438ZM1189.42 270.152C1198.61 271.897 1205.48 273.84 1210.01 275.979C1214.54 278.119 1217.6 280.923 1219.2 284.391C1220.79 287.727 1221.59 292.461 1221.58 298.595C1221.57 306.195 1220.16 312.259 1217.35 316.789C1214.68 321.185 1209.88 324.446 1202.94 326.57C1196.14 328.694 1186.47 329.748 1173.94 329.732C1167.54 329.723 1161.34 329.382 1155.34 328.707C1149.34 328.166 1142.07 327.156 1133.54 325.678L1133.58 296.878L1145.58 296.894L1151.36 313.902C1158.42 315.111 1166.15 315.721 1174.55 315.732C1182.82 315.743 1189.02 315.352 1193.16 314.557C1197.29 313.629 1200.09 312.166 1201.56 310.168C1203.16 308.037 1203.97 304.971 1203.97 300.971C1203.98 297.371 1203.25 294.704 1201.78 292.968C1200.32 291.1 1198.12 289.764 1195.19 288.96C1192.39 288.156 1187.46 287.216 1180.39 286.14L1166.8 283.722C1157.33 281.976 1150.2 280.033 1145.4 277.894C1140.61 275.754 1137.21 272.883 1135.22 269.28C1133.35 265.544 1132.43 260.343 1132.44 253.677C1132.45 246.343 1133.72 240.545 1136.26 236.282C1138.93 232.018 1143.47 228.891 1149.87 226.9C1156.28 224.775 1165.28 223.72 1176.88 223.735C1188.48 223.751 1202.21 225.102 1218.07 227.79L1218.03 255.59L1206.43 255.574L1201.06 239.967C1192.26 238.489 1183.92 237.745 1176.06 237.734C1169.12 237.725 1163.79 238.185 1160.06 239.113C1156.32 240.041 1153.72 241.505 1152.25 243.503C1150.78 245.501 1150.04 248.367 1150.04 252.1C1150.03 255.833 1150.83 258.634 1152.43 260.503C1154.03 262.238 1156.62 263.642 1160.22 264.713C1163.82 265.651 1170.09 266.86 1179.02 268.338C1182.35 268.743 1185.82 269.347 1189.42 270.152ZM1305.21 328.705C1292.41 328.688 1283.21 326.076 1277.62 320.869C1272.16 315.662 1269.44 306.858 1269.46 294.458L1269.53 240.658L1253.93 240.637L1253.94 229.437L1269.55 226.658L1275.58 197.666L1286.38 197.68L1286.35 226.68L1320.55 226.926L1320.53 240.926L1286.33 240.68L1286.26 294.48C1286.25 299.947 1286.91 304.081 1288.24 306.883C1289.57 309.685 1291.77 311.621 1294.83 312.692C1297.9 313.762 1302.36 314.302 1308.23 314.309C1312.76 314.315 1317.5 313.855 1322.43 312.928L1322.41 326.928C1317.61 328.122 1311.88 328.714 1305.21 328.705Z" fill="white" fill-opacity="0.2" shape-rendering="crispEdges"/>
</g>
<g filter="url(#filter1_d_42_72)">
<path d="M211.071 773.19L222.071 773.174L222.105 796.974L207.713 802.195C213.321 807.654 217.463 813.581 220.138 819.977C222.814 826.24 224.158 833.305 224.169 841.171C224.187 853.971 221.734 863.442 216.81 869.582C211.885 875.722 203.89 878.801 192.823 878.816C181.09 878.833 172.618 875.179 167.407 867.853C162.063 860.527 159.38 848.731 159.356 832.465C159.347 826.065 159.939 820.464 161.132 815.662C162.192 810.727 163.519 806.725 165.115 803.656L157.315 803.667C151.182 803.676 146.449 804.483 143.118 806.088C139.654 807.559 137.191 810.296 135.73 814.298C134.136 818.167 133.344 823.835 133.355 831.302C133.374 844.769 134.994 858.766 138.215 873.295L123.815 873.316C120.594 858.52 118.973 844.389 118.954 830.923C118.936 818.389 120.189 808.987 122.713 802.717C125.238 796.313 128.898 792.108 133.695 790.101C138.492 787.961 145.157 786.885 153.691 786.873L205.091 786.799L211.071 773.19ZM191.598 861.218C198.131 861.209 202.795 859.602 205.591 856.398C208.386 853.061 209.777 847.059 209.765 838.392C209.756 831.992 208.613 825.86 206.338 819.997C203.93 814 200.655 808.539 196.515 803.611L176.515 803.64C174.392 811.11 173.339 820.111 173.354 830.644C173.37 842.244 174.848 850.242 177.788 854.638C180.728 859.034 185.331 861.227 191.598 861.218ZM210.853 621.52L221.853 621.504L221.897 651.904L155.697 651.999C147.83 652.011 142.167 653.952 138.705 657.824C135.111 661.562 133.319 667.098 133.329 674.431C133.336 679.098 133.943 683.697 135.149 688.229C136.355 692.627 138.498 699.091 141.577 707.62L204.977 707.529L210.954 691.92L221.954 691.904L222.021 737.904L211.021 737.92L205.001 724.329L138.601 724.424L133.021 738.032L121.621 738.048L121.589 715.848L129.781 710.637C125.904 703.175 123.094 696.113 121.351 689.449C119.608 682.784 118.731 675.986 118.722 669.052C118.709 660.652 120.033 653.984 122.693 649.047C125.219 644.11 129.347 640.57 135.078 638.429C140.674 636.288 148.273 635.21 157.873 635.196L204.873 635.129L210.853 621.52ZM210.651 480.503L221.651 480.487L221.685 504.287L207.292 509.508C212.9 514.966 217.042 520.894 219.718 527.29C222.394 533.553 223.737 540.618 223.748 548.484C223.767 561.284 221.314 570.754 216.389 576.895C211.465 583.035 203.469 586.113 192.402 586.129C180.669 586.146 172.197 582.492 166.987 575.166C161.643 567.84 158.959 556.044 158.936 539.777C158.927 533.377 159.519 527.776 160.712 522.975C161.771 518.04 163.099 514.038 164.695 510.969L156.895 510.98C150.761 510.989 146.029 511.796 142.698 513.401C139.233 514.872 136.771 517.609 135.31 521.611C133.715 525.48 132.923 531.148 132.934 538.615C132.954 552.081 134.574 566.079 137.795 580.608L123.395 580.628C120.173 565.833 118.553 551.702 118.534 538.235C118.516 525.702 119.769 516.3 122.293 510.03C124.817 503.626 128.478 499.421 133.275 497.414C138.072 495.274 144.737 494.198 153.27 494.185L204.67 494.112L210.651 480.503ZM191.177 568.531C197.711 568.522 202.375 566.915 205.17 563.711C207.966 560.374 209.357 554.372 209.344 545.705C209.335 539.305 208.193 533.173 205.918 527.31C203.509 521.313 200.235 515.851 196.094 510.924L176.094 510.953C173.972 518.422 172.918 527.424 172.933 537.957C172.95 549.557 174.428 557.555 177.368 561.951C180.307 566.347 184.911 568.54 191.177 568.531ZM204.564 419.919L210.544 406.311L221.544 406.295L221.607 450.295L210.607 450.311L204.588 436.719L96.588 436.875L91.0076 450.483L79.6076 450.499L79.5639 420.099L204.564 419.919ZM120.927 255.083L132.127 255.067L137.75 271.459L236.414 315.517C244.019 318.84 249.891 322.565 254.03 326.692C258.302 330.686 261.376 335.815 263.252 342.079C265.261 348.209 266.272 356.208 266.287 366.075L266.292 370.075L251.492 370.096C251.885 365.029 252.078 360.162 252.071 355.495C252.064 350.428 251.392 346.429 250.054 343.498C248.716 340.433 245.912 337.437 241.641 334.51C237.503 331.449 230.831 327.792 221.625 323.539L137.881 362.059L132.304 378.467L121.104 378.483L121.031 327.483L132.231 327.467L137.654 343.659L202.213 314.767L137.572 286.459L132.195 302.667L120.995 302.683L120.927 255.083ZM164.403 169.077C166.124 159.874 168.047 153.005 170.174 148.469C172.301 143.932 175.096 140.862 178.561 139.257C181.892 137.652 186.624 136.845 192.757 136.836C200.357 136.825 206.426 138.217 210.963 141.01C215.367 143.67 218.641 148.466 220.784 155.396C222.927 162.193 224.008 171.858 224.026 184.391C224.035 190.791 223.71 196.992 223.052 202.993C222.528 208.993 221.538 216.262 220.084 224.797L191.284 224.838L191.266 212.838L208.258 207.014C209.448 199.946 210.037 192.211 210.025 183.811C210.013 175.545 209.604 169.345 208.798 165.213C207.859 161.081 206.388 158.283 204.386 156.819C202.25 155.223 199.182 154.427 195.182 154.433C191.582 154.438 188.917 155.175 187.186 156.644C185.321 158.114 183.991 160.315 183.195 163.25C182.399 166.051 181.473 170.986 180.416 178.054L178.036 191.657C176.316 201.127 174.393 208.263 172.267 213.066C170.14 217.869 167.278 221.273 163.681 223.278C159.951 225.15 154.752 226.091 148.085 226.1C140.752 226.111 134.95 224.853 130.68 222.325C126.409 219.665 123.27 215.136 121.26 208.739C119.118 202.342 118.038 193.344 118.022 181.744C118.005 170.144 119.319 156.408 121.962 140.538L149.762 140.498L149.779 152.098L134.187 157.52C132.733 166.322 132.011 174.657 132.023 182.523C132.033 189.457 132.507 194.789 133.446 198.521C134.384 202.253 135.855 204.851 137.857 206.315C139.859 207.779 142.727 208.508 146.46 208.503C150.193 208.497 152.992 207.693 154.857 206.091C156.588 204.488 157.984 201.886 159.045 198.285C159.974 194.683 161.165 188.415 162.618 179.479C163.014 176.146 163.609 172.678 164.403 169.077ZM222.637 53.1197C222.655 65.9197 220.069 75.1234 214.877 80.7309C209.684 86.205 200.888 88.951 188.488 88.9688L134.688 89.0461L134.711 104.646L123.511 104.662L120.688 89.0662L91.6799 83.1078L91.6644 72.3079L120.664 72.2662L120.815 38.066L134.815 38.0458L134.664 72.2461L188.464 72.1688C193.931 72.161 198.063 71.4884 200.861 70.151C203.659 68.8137 205.59 66.6109 206.652 63.5427C207.714 60.4745 208.241 56.0071 208.233 50.1404C208.226 45.6071 207.753 40.8744 206.812 35.9424L220.812 35.9223C222.019 40.7206 222.627 46.4531 222.637 53.1197Z" fill="white" fill-opacity="0.2" shape-rendering="crispEdges"/>
</g>
<g filter="url(#filter2_d_42_72)">
<path d="M460.976 177.156L460.962 188.156L437.162 188.124L431.981 173.717C426.373 179.31 420.368 183.435 413.964 186.094C407.694 188.752 400.426 190.076 392.159 190.065C383.093 190.053 375.628 188.509 369.765 185.435C364.036 182.227 359.71 176.888 356.786 169.418C353.863 161.814 352.41 151.412 352.428 138.212C352.453 119.412 356.071 105.817 363.282 97.4264C370.493 89.0359 380.765 84.8495 394.098 84.8671C400.232 84.8753 406.231 85.7499 412.095 87.491C417.959 89.2321 424.156 92.0403 430.684 95.9156L430.727 63.1156L417.135 57.4976L417.15 46.0976L447.55 46.1379L447.384 171.138L460.976 177.156ZM370.026 139.835C370.013 149.035 370.871 156.236 372.597 161.439C374.457 166.641 377.252 170.312 380.982 172.45C384.713 174.455 389.579 175.461 395.579 175.469C407.978 175.486 419.651 171.168 430.596 162.516L430.668 107.716C422.272 104.638 415.875 102.496 411.477 101.29C407.212 100.085 402.746 99.4786 398.079 99.4724C388.079 99.4592 380.875 102.783 376.466 109.444C372.191 115.972 370.044 126.102 370.026 139.835ZM601.981 177.342L601.966 188.342L578.166 188.311L572.985 173.904C567.511 179.497 561.573 183.622 555.169 186.28C548.899 188.939 541.83 190.263 533.964 190.252C521.164 190.235 511.7 187.756 505.574 182.815C499.447 177.873 496.391 169.869 496.405 158.803C496.421 147.069 500.099 138.608 507.439 133.417C514.779 128.094 526.583 125.443 542.85 125.464C549.25 125.473 554.849 126.08 559.647 127.286C564.579 128.36 568.577 129.698 571.642 131.302L571.652 123.502C571.66 117.369 570.867 112.635 569.271 109.299C567.809 105.83 565.079 103.36 561.081 101.888C557.216 100.283 551.551 99.4756 544.084 99.4657C530.617 99.4479 516.615 101.029 502.078 104.21L502.097 89.8101C516.901 86.6297 531.036 85.0484 544.503 85.0663C557.036 85.0829 566.435 86.362 572.698 88.9036C579.095 91.4454 583.29 95.1176 585.283 99.9203C587.41 104.723 588.468 111.391 588.457 119.924L588.389 171.324L601.981 177.342ZM514.007 157.626C513.998 164.159 515.592 168.828 518.788 171.632C522.118 174.437 528.116 175.845 536.783 175.856C543.183 175.865 549.318 174.739 555.187 172.48C561.19 170.088 566.661 166.829 571.6 162.702L571.627 142.702C564.163 140.559 555.164 139.48 544.631 139.466C533.031 139.451 525.029 140.907 520.625 143.835C516.221 146.762 514.015 151.359 514.007 157.626ZM684.634 190.052C671.834 190.035 662.638 187.423 657.045 182.215C651.585 177.008 648.863 168.205 648.88 155.805L648.951 102.005L633.351 101.984L633.366 90.7839L648.97 88.0046L655.008 59.0125L665.808 59.0268L665.769 88.0268L699.969 88.2721L699.951 102.272L665.751 102.027L665.68 155.827C665.673 161.293 666.334 165.428 667.663 168.229C668.993 171.031 671.19 172.967 674.256 174.038C677.321 175.109 681.787 175.648 687.654 175.656C692.187 175.662 696.921 175.201 701.855 174.275L701.837 188.275C697.035 189.468 691.301 190.061 684.634 190.052ZM843.887 177.663L843.872 188.663L820.072 188.631L814.891 174.224C809.417 179.817 803.479 183.943 797.075 186.601C790.805 189.259 783.736 190.583 775.87 190.573C763.07 190.556 753.606 188.077 747.48 183.135C741.353 178.194 738.297 170.19 738.311 159.123C738.327 147.39 742.005 138.928 749.345 133.738C756.685 128.414 768.489 125.763 784.756 125.784C791.156 125.793 796.755 126.4 801.553 127.607C806.485 128.68 810.483 130.018 813.548 131.622L813.558 123.823C813.566 117.689 812.773 112.955 811.177 109.619C809.715 106.151 806.985 103.68 802.987 102.208C799.122 100.603 793.457 99.7959 785.99 99.786C772.523 99.7682 758.521 101.35 743.984 104.53L744.003 90.1304C758.807 86.95 772.942 85.3687 786.409 85.3865C798.942 85.4031 808.341 86.6822 814.604 89.2239C821.001 91.7657 825.196 95.4379 827.189 100.241C829.316 105.043 830.374 111.711 830.363 120.245L830.295 171.645L843.887 177.663ZM755.913 157.946C755.904 164.48 757.498 169.148 760.694 171.953C764.024 174.757 770.022 176.165 778.689 176.176C785.089 176.185 791.224 175.06 797.093 172.801C803.096 170.409 808.567 167.149 813.506 163.022L813.533 143.022C806.069 140.879 797.07 139.801 786.537 139.787C774.937 139.771 766.935 141.227 762.531 144.155C758.127 147.082 755.921 151.68 755.913 157.946Z" fill="white" fill-opacity="0.2" shape-rendering="crispEdges"/>
</g>
<defs>
<filter id="filter0_d_42_72" x="451.502" y="164.012" width="913.1" height="257.916" filterUnits="userSpaceOnUse" color-interpolation-filters="sRGB">
<feFlood flood-opacity="0" result="BackgroundImageFix"/>
<feColorMatrix in="SourceAlpha" type="matrix" values="0 0 0 0 0 0 0 0 0 0 0 0 0 0 0 0 0 0 127 0" result="hardAlpha"/>
<feOffset dx="7" dy="15"/>
<feGaussianBlur stdDeviation="17.5"/>
<feComposite in2="hardAlpha" operator="out"/>
<feColorMatrix type="matrix" values="0 0 0 0 0 0 0 0 0 0 0 0 0 0 0 0 0 0 0.1 0"/>
<feBlend mode="normal" in2="BackgroundImageFix" result="effect1_dropShadow_42_72"/>
<feBlend mode="normal" in="SourceGraphic" in2="effect1_dropShadow_42_72" result="shape"/>
</filter>
<filter id="filter1_d_42_72" x="51.0125" y="15.8577" width="258.01" height="913.121" filterUnits="userSpaceOnUse" color-interpolation-filters="sRGB">
<feFlood flood-opacity="0" result="BackgroundImageFix"/>
<feColorMatrix in="SourceAlpha" type="matrix" values="0 0 0 0 0 0 0 0 0 0 0 0 0 0 0 0 0 0 127 0" result="hardAlpha"/>
<feOffset dx="7" dy="15"/>
<feGaussianBlur stdDeviation="17.5"/>
<feComposite in2="hardAlpha" operator="out"/>
<feColorMatrix type="matrix" values="0 0 0 0 0 0 0 0 0 0 0 0 0 0 0 0 0 0 0.1 0"/>
<feBlend mode="normal" in2="BackgroundImageFix" result="effect1_dropShadow_42_72"/>
<feBlend mode="normal" in="SourceGraphic" in2="effect1_dropShadow_42_72" result="shape"/>
</filter>
<filter id="filter2_d_42_72" x="324.359" y="26.0121" width="561.701" height="214.651" filterUnits="userSpaceOnUse" color-interpolation-filters="sRGB">
<feFlood flood-opacity="0" result="BackgroundImageFix"/>
<feColorMatrix in="SourceAlpha" type="matrix" values="0 0 0 0 0 0 0 0 0 0 0 0 0 0 0 0 0 0 127 0" result="hardAlpha"/>
<feOffset dx="7" dy="15"/>
<feGaussianBlur stdDeviation="17.5"/>
<feComposite in2="hardAlpha" operator="out"/>
<feColorMatrix type="matrix" values="0 0 0 0 0 0 0 0 0 0 0 0 0 0 0 0 0 0 0.1 0"/>
<feBlend mode="normal" in2="BackgroundImageFix" result="effect1_dropShadow_42_72"/>
<feBlend mode="normal" in="SourceGraphic" in2="effect1_dropShadow_42_72" result="shape"/>
</filter>
</defs>
</svg>
