<svg width="1440" height="1024" viewBox="0 0 1440 1024" fill="none" xmlns="http://www.w3.org/2000/svg">
<rect width="1440" height="1024" fill="white"/>
<g filter="url(#filter0_d_42_72)">
<path d="M294.35 308.81V323H263.648L256.94 304.424C249.888 311.648 242.234 316.98 233.978 320.42C225.894 323.86 216.778 325.58 206.63 325.58C190.118 325.58 177.906 322.398 169.994 316.034C162.082 309.67 158.126 299.35 158.126 285.074C158.126 269.938 162.856 259.016 172.316 252.308C181.776 245.428 196.998 241.988 217.982 241.988C226.238 241.988 233.462 242.762 239.654 244.31C246.018 245.686 251.178 247.406 255.134 249.47V239.408C255.134 231.496 254.102 225.39 252.038 221.09C250.146 216.618 246.62 213.436 241.46 211.544C236.472 209.48 229.162 208.448 219.53 208.448C202.158 208.448 184.098 210.512 165.35 214.64V196.064C184.442 191.936 202.674 189.872 220.046 189.872C236.214 189.872 248.34 191.506 256.424 194.774C264.68 198.042 270.098 202.772 272.678 208.964C275.43 215.156 276.806 223.756 276.806 234.764V301.07L294.35 308.81ZM180.83 283.526C180.83 291.954 182.894 297.974 187.022 301.586C191.322 305.198 199.062 307.004 210.242 307.004C218.498 307.004 226.41 305.542 233.978 302.618C241.718 299.522 248.77 295.308 255.134 289.976V264.176C245.502 261.424 233.892 260.048 220.304 260.048C205.34 260.048 195.02 261.94 189.344 265.724C183.668 269.508 180.83 275.442 180.83 283.526ZM490.005 308.81V323H450.789V237.602C450.789 227.454 448.295 220.144 443.307 215.672C438.491 211.028 431.353 208.706 421.893 208.706C415.873 208.706 409.939 209.48 404.091 211.028C398.415 212.576 390.073 215.328 379.065 219.284V301.07L399.189 308.81V323H339.849V308.81L357.393 301.07V215.414L339.849 208.19V193.484H368.487L375.195 204.062C384.827 199.074 393.943 195.462 402.543 193.226C411.143 190.99 419.915 189.872 428.859 189.872C439.695 189.872 448.295 191.592 454.659 195.032C461.023 198.3 465.581 203.632 468.333 211.028C471.085 218.252 472.461 228.056 472.461 240.44V301.07L490.005 308.81ZM671.917 308.81V323H641.215L634.507 304.424C627.455 311.648 619.801 316.98 611.545 320.42C603.461 323.86 594.345 325.58 584.197 325.58C567.685 325.58 555.473 322.398 547.561 316.034C539.649 309.67 535.693 299.35 535.693 285.074C535.693 269.938 540.423 259.016 549.883 252.308C559.343 245.428 574.565 241.988 595.549 241.988C603.805 241.988 611.029 242.762 617.221 244.31C623.585 245.686 628.745 247.406 632.701 249.47V239.408C632.701 231.496 631.669 225.39 629.605 221.09C627.713 216.618 624.187 213.436 619.027 211.544C614.039 209.48 606.729 208.448 597.097 208.448C579.725 208.448 561.665 210.512 542.917 214.64V196.064C562.009 191.936 580.241 189.872 597.613 189.872C613.781 189.872 625.907 191.506 633.991 194.774C642.247 198.042 647.665 202.772 650.245 208.964C652.997 215.156 654.373 223.756 654.373 234.764V301.07L671.917 308.81ZM558.397 283.526C558.397 291.954 560.461 297.974 564.589 301.586C568.889 305.198 576.629 307.004 587.809 307.004C596.065 307.004 603.977 305.542 611.545 302.618C619.285 299.522 626.337 295.308 632.701 289.976V264.176C623.069 261.424 611.459 260.048 597.871 260.048C582.907 260.048 572.587 261.94 566.911 265.724C561.235 269.508 558.397 275.442 558.397 283.526ZM750.081 301.07L767.625 308.81V323H710.865V308.81L728.409 301.07V161.75L710.865 154.526V139.82H750.081V301.07ZM962.874 193.484V207.932L941.718 215.156L884.7 342.35C880.4 352.154 875.584 359.722 870.252 365.054C865.092 370.558 858.47 374.514 850.386 376.922C842.474 379.502 832.154 380.792 819.426 380.792H814.266V361.7C820.802 362.216 827.08 362.474 833.1 362.474C839.636 362.474 844.796 361.614 848.58 359.894C852.536 358.174 856.406 354.562 860.19 349.058C864.146 343.726 868.876 335.126 874.38 323.258L824.844 215.156L803.688 207.932V193.484H869.478V207.932L848.58 214.898L885.732 298.232L922.368 214.898L901.47 207.932V193.484H962.874ZM1073.74 249.728C1085.61 251.964 1094.47 254.458 1100.32 257.21C1106.16 259.962 1110.12 263.574 1112.18 268.046C1114.25 272.346 1115.28 278.452 1115.28 286.364C1115.28 296.168 1113.47 303.994 1109.86 309.842C1106.42 315.518 1100.23 319.732 1091.29 322.484C1082.51 325.236 1070.04 326.612 1053.88 326.612C1045.62 326.612 1037.62 326.182 1029.88 325.322C1022.14 324.634 1012.77 323.344 1001.76 321.452V284.3H1017.24L1024.72 306.23C1033.84 307.778 1043.81 308.552 1054.65 308.552C1065.31 308.552 1073.31 308.036 1078.64 307.004C1083.98 305.8 1087.59 303.908 1089.48 301.328C1091.54 298.576 1092.58 294.62 1092.58 289.46C1092.58 284.816 1091.63 281.376 1089.74 279.14C1087.85 276.732 1085.01 275.012 1081.22 273.98C1077.61 272.948 1071.25 271.744 1062.13 270.368L1044.59 267.272C1032.38 265.036 1023.17 262.542 1016.98 259.79C1010.79 257.038 1006.4 253.34 1003.82 248.696C1001.42 243.88 1000.21 237.172 1000.21 228.572C1000.21 219.112 1001.85 211.63 1005.11 206.126C1008.55 200.622 1014.4 196.58 1022.66 194C1030.91 191.248 1042.52 189.872 1057.49 189.872C1072.45 189.872 1090.17 191.592 1110.64 195.032V230.894H1095.67L1088.71 210.77C1077.35 208.878 1066.6 207.932 1056.46 207.932C1047.51 207.932 1040.63 208.534 1035.82 209.738C1031 210.942 1027.65 212.834 1025.75 215.414C1023.86 217.994 1022.92 221.692 1022.92 226.508C1022.92 231.324 1023.95 234.936 1026.01 237.344C1028.08 239.58 1031.43 241.386 1036.07 242.762C1040.72 243.966 1048.8 245.514 1060.33 247.406C1064.63 247.922 1069.1 248.696 1073.74 249.728ZM1223.22 325.064C1206.71 325.064 1194.84 321.71 1187.61 315.002C1180.56 308.294 1177.04 296.942 1177.04 280.946V211.544H1156.91V197.096L1177.04 193.484L1184.78 156.074H1198.71V193.484L1242.83 193.742V211.802L1198.71 211.544V280.946C1198.71 287.998 1199.57 293.33 1201.29 296.942C1203.01 300.554 1205.85 303.048 1209.8 304.424C1213.76 305.8 1219.52 306.488 1227.09 306.488C1232.94 306.488 1239.04 305.886 1245.41 304.682V322.742C1239.21 324.29 1231.82 325.064 1223.22 325.064Z" fill="white" fill-opacity="0.2" shape-rendering="crispEdges"/>
</g>
<defs>
<filter id="filter0_d_42_72" x="130.126" y="119.82" width="1157.28" height="310.972" filterUnits="userSpaceOnUse" color-interpolation-filters="sRGB">
<feFlood flood-opacity="0" result="BackgroundImageFix"/>
<feColorMatrix in="SourceAlpha" type="matrix" values="0 0 0 0 0 0 0 0 0 0 0 0 0 0 0 0 0 0 127 0" result="hardAlpha"/>
<feOffset dx="7" dy="15"/>
<feGaussianBlur stdDeviation="17.5"/>
<feComposite in2="hardAlpha" operator="out"/>
<feColorMatrix type="matrix" values="0 0 0 0 0 0 0 0 0 0 0 0 0 0 0 0 0 0 0.1 0"/>
<feBlend mode="normal" in2="BackgroundImageFix" result="effect1_dropShadow_42_72"/>
<feBlend mode="normal" in="SourceGraphic" in2="effect1_dropShadow_42_72" result="shape"/>
</filter>
</defs>
</svg>
