<svg width="1282" height="444" viewBox="0 0 1282 444" fill="none" xmlns="http://www.w3.org/2000/svg">
<g filter="url(#filter0_d_59_43)">
<path d="M658.775 310.166L658.76 321.166L628.36 321.126L628.448 254.926C628.458 247.059 626.533 241.39 622.671 237.918C618.942 234.313 613.411 232.506 606.078 232.496C601.411 232.49 596.81 233.084 592.275 234.278C587.874 235.472 581.404 237.597 572.867 240.652L572.783 304.052L588.375 310.073L588.36 321.073L542.361 321.012L542.375 310.012L555.983 304.03L556.071 237.63L542.478 232.012L542.493 220.612L564.693 220.641L569.883 228.848C577.354 224.992 584.425 222.201 591.094 220.476C597.763 218.752 604.564 217.894 611.497 217.903C619.897 217.915 626.562 219.257 631.492 221.93C636.422 224.47 639.95 228.608 642.075 234.344C644.201 239.947 645.258 247.548 645.245 257.148L645.183 304.148L658.775 310.166ZM798.792 310.351L798.777 321.351L774.977 321.32L769.797 306.913C764.322 312.506 758.384 316.631 751.98 319.289C745.71 321.948 738.642 323.272 730.775 323.261C717.975 323.244 708.512 320.765 702.385 315.824C696.258 310.882 693.202 302.878 693.216 291.812C693.232 280.078 696.91 271.617 704.25 266.426C711.59 261.103 723.394 258.452 739.661 258.473C746.061 258.482 751.66 259.089 756.458 260.295C761.39 261.369 765.388 262.707 768.453 264.311L768.463 256.511C768.471 250.378 767.678 245.644 766.082 242.308C764.62 238.839 761.89 236.369 757.892 234.897C754.027 233.292 748.362 232.485 740.895 232.475C727.428 232.457 713.426 234.038 698.889 237.219L698.908 222.819C713.712 219.639 727.847 218.057 741.314 218.075C753.847 218.092 763.246 219.371 769.509 221.913C775.906 224.454 780.101 228.127 782.095 232.929C784.222 237.732 785.279 244.4 785.268 252.934L785.2 304.333L798.792 310.351ZM710.818 290.635C710.809 297.168 712.403 301.837 715.6 304.641C718.929 307.446 724.927 308.854 733.594 308.865C739.994 308.874 746.129 307.748 751.998 305.49C758.002 303.097 763.473 299.838 768.411 295.711L768.438 275.711C760.974 273.568 751.975 272.489 741.442 272.476C729.842 272.46 721.84 273.916 717.436 276.844C713.032 279.771 710.826 284.368 710.818 290.635ZM858.392 304.43L871.984 310.448L871.97 321.448L827.97 321.39L827.984 310.39L841.592 304.408L841.735 196.408L828.143 190.79L828.158 179.39L858.558 179.43L858.392 304.43ZM1022.46 221.247L1022.44 232.447L1006.04 238.026L961.706 336.567C958.363 344.163 954.621 350.024 950.483 354.152C946.477 358.414 941.34 361.474 935.07 363.332C928.934 365.324 920.933 366.313 911.066 366.3L907.067 366.295L907.086 351.495C912.152 351.902 917.019 352.108 921.685 352.114C926.752 352.121 930.753 351.46 933.688 350.13C936.756 348.801 939.76 346.005 942.699 341.742C945.771 337.613 949.447 330.951 953.726 321.757L915.436 237.906L899.044 232.284L899.059 221.084L950.059 221.152L950.044 232.352L933.837 237.73L962.551 302.368L991.037 237.806L974.844 232.384L974.859 221.184L1022.46 221.247ZM1107.34 264.96C1116.54 266.705 1123.41 268.648 1127.94 270.787C1132.47 272.927 1135.53 275.731 1137.13 279.199C1138.72 282.535 1139.52 287.269 1139.51 293.403C1139.5 301.003 1138.09 307.067 1135.28 311.597C1132.61 315.993 1127.81 319.254 1120.87 321.378C1114.07 323.502 1104.4 324.556 1091.87 324.539C1085.47 324.531 1079.27 324.189 1073.27 323.515C1067.27 322.974 1060 321.964 1051.47 320.486L1051.51 291.686L1063.51 291.702L1069.29 308.71C1076.35 309.919 1084.08 310.529 1092.48 310.54C1100.75 310.551 1106.95 310.159 1111.09 309.365C1115.22 308.437 1118.02 306.974 1119.49 304.976C1121.09 302.845 1121.9 299.779 1121.9 295.779C1121.91 292.179 1121.18 289.512 1119.71 287.776C1118.25 285.908 1116.05 284.571 1113.12 283.768C1110.32 282.964 1105.39 282.024 1098.32 280.948L1084.73 278.53C1075.26 276.784 1068.13 274.841 1063.33 272.702C1058.54 270.562 1055.14 267.691 1053.15 264.088C1051.28 260.352 1050.36 255.151 1050.37 248.484C1050.38 241.151 1051.65 235.353 1054.19 231.09C1056.86 226.826 1061.4 223.699 1067.8 221.708C1074.2 219.583 1083.21 218.528 1094.81 218.543C1106.41 218.559 1120.14 219.91 1136 222.598L1135.96 250.398L1124.36 250.382L1118.98 234.775C1110.19 233.297 1101.85 232.553 1093.99 232.542C1087.05 232.533 1081.72 232.993 1077.99 233.921C1074.25 234.849 1071.65 236.313 1070.18 238.311C1068.71 240.309 1067.97 243.174 1067.97 246.908C1067.96 250.641 1068.76 253.442 1070.36 255.311C1071.96 257.046 1074.55 258.45 1078.15 259.521C1081.75 260.459 1088.02 261.668 1096.95 263.146C1100.28 263.551 1103.75 264.155 1107.34 264.96ZM1222.14 323.512C1209.34 323.495 1200.14 320.883 1194.55 315.675C1189.09 310.468 1186.37 301.665 1186.39 289.265L1186.46 235.465L1170.86 235.444L1170.87 224.244L1186.48 221.465L1192.51 192.473L1203.31 192.487L1203.28 221.487L1237.48 221.732L1237.46 235.732L1203.26 235.487L1203.19 289.287C1203.18 294.753 1203.84 298.888 1205.17 301.689C1206.5 304.491 1208.7 306.427 1211.76 307.498C1214.83 308.569 1219.29 309.108 1225.16 309.116C1229.69 309.122 1234.43 308.662 1239.36 307.735L1239.34 321.735C1234.54 322.928 1228.81 323.521 1222.14 323.512Z" fill="white" fill-opacity="0.2" shape-rendering="crispEdges"/>
</g>
<g filter="url(#filter1_d_59_43)">
<path d="M126.179 188.24L126.166 198.14L104.746 198.112L100.083 185.146C95.0361 190.179 89.6311 193.892 83.868 196.284C78.2248 198.677 71.6832 199.868 64.2432 199.858C56.0832 199.847 49.3651 198.459 44.0887 195.692C38.9325 192.805 35.0389 188 32.4078 181.276C29.7769 174.433 28.4692 165.071 28.485 153.191C28.5074 136.271 31.7636 124.035 38.2536 116.484C44.7436 108.932 53.9886 105.165 65.9886 105.18C71.5086 105.188 76.9075 105.975 82.1855 107.542C87.4634 109.109 93.04 111.636 98.9154 115.124L98.9545 85.6041L86.7212 80.5479L86.7348 70.2879L114.095 70.3241L113.946 182.824L126.179 188.24ZM44.3231 154.652C44.3121 162.932 45.0835 169.413 46.6373 174.095C48.3111 178.777 50.8267 182.08 54.1842 184.005C57.5418 185.809 61.9206 186.715 67.3206 186.722C78.4806 186.737 88.9858 182.851 98.8361 175.064L98.9014 125.744C91.345 122.974 85.5876 121.046 81.629 119.961C77.7904 118.876 73.7712 118.331 69.5712 118.325C60.5712 118.313 54.0872 121.305 50.1193 127.299C46.2715 133.174 44.3394 142.292 44.3231 154.652ZM253.083 188.408L253.07 198.308L231.65 198.28L226.987 185.314C222.06 190.347 216.715 194.06 210.952 196.452C205.309 198.845 198.947 200.037 191.867 200.027C180.347 200.012 171.83 197.781 166.316 193.333C160.802 188.886 158.052 181.682 158.065 171.722C158.079 161.162 161.389 153.547 167.995 148.876C174.601 144.084 185.225 141.698 199.865 141.718C205.625 141.725 210.664 142.272 214.982 143.358C219.421 144.324 223.02 145.528 225.778 146.972L225.787 139.952C225.794 134.432 225.08 130.171 223.644 127.169C222.328 124.047 219.871 121.824 216.273 120.499C212.795 119.055 207.696 118.328 200.976 118.319C188.856 118.303 176.254 119.726 163.17 122.589L163.187 109.629C176.511 106.767 189.233 105.344 201.353 105.36C212.633 105.375 221.091 106.526 226.728 108.813C232.485 111.101 236.261 114.406 238.055 118.728C239.969 123.051 240.921 129.052 240.911 136.732L240.85 182.992L253.083 188.408ZM173.906 170.663C173.898 176.543 175.333 180.745 178.21 183.269C181.206 185.793 186.604 187.06 194.404 187.071C200.164 187.078 205.686 186.065 210.969 184.032C216.371 181.88 221.295 178.946 225.74 175.232L225.764 157.232C219.047 155.303 210.948 154.332 201.468 154.32C191.028 154.306 183.826 155.616 179.863 158.251C175.899 160.886 173.914 165.023 173.906 170.663ZM327.471 199.847C315.951 199.831 307.674 197.48 302.64 192.794C297.726 188.107 295.277 180.184 295.292 169.024L295.356 120.604L281.316 120.586L281.329 110.506L295.373 108.004L300.807 81.9113L310.527 81.9242L310.493 108.024L341.272 108.245L341.256 120.845L310.476 120.624L310.412 169.044C310.405 173.964 311 177.685 312.197 180.206C313.394 182.728 315.371 184.471 318.13 185.434C320.889 186.398 324.908 186.883 330.188 186.89C334.268 186.896 338.529 186.481 342.97 185.647L342.953 198.247C338.632 199.321 333.471 199.855 327.471 199.847Z" fill="white" fill-opacity="0.2" shape-rendering="crispEdges"/>
</g>
<g filter="url(#filter2_d_59_43)">
<path d="M521.57 259.027L521.552 272.227L466.352 272.154L466.37 258.954L483.178 252.496L470.265 217.199L399.465 217.105L386.218 252.607L403.25 258.87L403.232 272.07L352.112 272.002L352.13 258.802L368.7 251.384L423.611 106.977L450.491 107.012L505.02 251.325L521.57 259.027ZM464.048 200.15L435.112 121.392L405.728 200.073L464.048 200.15Z" fill="white" fill-opacity="0.2" shape-rendering="crispEdges"/>
</g>
<defs>
<filter id="filter0_d_59_43" x="514.301" y="159.012" width="767.229" height="257.723" filterUnits="userSpaceOnUse" color-interpolation-filters="sRGB">
<feFlood flood-opacity="0" result="BackgroundImageFix"/>
<feColorMatrix in="SourceAlpha" type="matrix" values="0 0 0 0 0 0 0 0 0 0 0 0 0 0 0 0 0 0 127 0" result="hardAlpha"/>
<feOffset dx="7" dy="15"/>
<feGaussianBlur stdDeviation="17.5"/>
<feComposite in2="hardAlpha" operator="out"/>
<feColorMatrix type="matrix" values="0 0 0 0 0 0 0 0 0 0 0 0 0 0 0 0 0 0 0.1 0"/>
<feBlend mode="normal" in2="BackgroundImageFix" result="effect1_dropShadow_59_43"/>
<feBlend mode="normal" in="SourceGraphic" in2="effect1_dropShadow_59_43" result="shape"/>
</filter>
<filter id="filter1_d_59_43" x="0.423279" y="50.2109" width="384.699" height="200.016" filterUnits="userSpaceOnUse" color-interpolation-filters="sRGB">
<feFlood flood-opacity="0" result="BackgroundImageFix"/>
<feColorMatrix in="SourceAlpha" type="matrix" values="0 0 0 0 0 0 0 0 0 0 0 0 0 0 0 0 0 0 127 0" result="hardAlpha"/>
<feOffset dx="7" dy="15"/>
<feGaussianBlur stdDeviation="17.5"/>
<feComposite in2="hardAlpha" operator="out"/>
<feColorMatrix type="matrix" values="0 0 0 0 0 0 0 0 0 0 0 0 0 0 0 0 0 0 0.1 0"/>
<feBlend mode="normal" in2="BackgroundImageFix" result="effect1_dropShadow_59_43"/>
<feBlend mode="normal" in="SourceGraphic" in2="effect1_dropShadow_59_43" result="shape"/>
</filter>
<filter id="filter2_d_59_43" x="324.112" y="86.8824" width="239.658" height="235.344" filterUnits="userSpaceOnUse" color-interpolation-filters="sRGB">
<feFlood flood-opacity="0" result="BackgroundImageFix"/>
<feColorMatrix in="SourceAlpha" type="matrix" values="0 0 0 0 0 0 0 0 0 0 0 0 0 0 0 0 0 0 127 0" result="hardAlpha"/>
<feOffset dx="7" dy="15"/>
<feGaussianBlur stdDeviation="17.5"/>
<feComposite in2="hardAlpha" operator="out"/>
<feColorMatrix type="matrix" values="0 0 0 0 0 0 0 0 0 0 0 0 0 0 0 0 0 0 0.1 0"/>
<feBlend mode="normal" in2="BackgroundImageFix" result="effect1_dropShadow_59_43"/>
<feBlend mode="normal" in="SourceGraphic" in2="effect1_dropShadow_59_43" result="shape"/>
</filter>
</defs>
</svg>
