<svg width="355" height="82" viewBox="0 0 355 82" fill="none" xmlns="http://www.w3.org/2000/svg">
<g filter="url(#filter0_d_4_45)">
<circle cx="37.5" cy="38.5" r="32" stroke="black" stroke-width="3"/>
<path d="M54.272 50.36V53H43.232V50.36L46.592 49.064L44 42.008H29.84L27.2 49.112L30.608 50.36V53H20.384V50.36L23.696 48.872L34.64 19.976H40.016L50.96 48.824L54.272 50.36ZM42.752 38.6L36.944 22.856L31.088 38.6H42.752Z" fill="black"/>
<path d="M89.452 51.76C91.048 51.76 92.362 52.222 93.394 53.146C94.426 54.07 94.942 55.636 94.942 57.844C94.942 60.088 94.426 61.678 93.394 62.614C92.362 63.538 91.048 64 89.452 64H82.99V63.01L84.61 62.452V53.308L82.99 52.786V51.76H89.452ZM86.158 53.056V62.704H89.074C89.974 62.704 90.73 62.572 91.342 62.308C91.954 62.032 92.434 61.54 92.782 60.832C93.142 60.112 93.322 59.116 93.322 57.844C93.322 56.596 93.142 55.624 92.782 54.928C92.434 54.22 91.954 53.734 91.342 53.47C90.73 53.194 89.974 53.056 89.074 53.056H86.158ZM109.193 63.01V64H107.051L106.583 62.704C106.091 63.208 105.557 63.58 104.981 63.82C104.417 64.06 103.781 64.18 103.073 64.18C101.921 64.18 101.069 63.958 100.517 63.514C99.9654 63.07 99.6894 62.35 99.6894 61.354C99.6894 60.298 100.019 59.536 100.679 59.068C101.339 58.588 102.401 58.348 103.865 58.348C104.441 58.348 104.945 58.402 105.377 58.51C105.821 58.606 106.181 58.726 106.457 58.87V58.168C106.457 57.616 106.385 57.19 106.241 56.89C106.109 56.578 105.863 56.356 105.503 56.224C105.155 56.08 104.645 56.008 103.973 56.008C102.761 56.008 101.501 56.152 100.193 56.44V55.144C101.525 54.856 102.797 54.712 104.009 54.712C105.137 54.712 105.983 54.826 106.547 55.054C107.123 55.282 107.501 55.612 107.681 56.044C107.873 56.476 107.969 57.076 107.969 57.844V62.47L109.193 63.01ZM101.273 61.246C101.273 61.834 101.417 62.254 101.705 62.506C102.005 62.758 102.545 62.884 103.325 62.884C103.901 62.884 104.453 62.782 104.981 62.578C105.521 62.362 106.013 62.068 106.457 61.696V59.896C105.785 59.704 104.975 59.608 104.027 59.608C102.983 59.608 102.263 59.74 101.867 60.004C101.471 60.268 101.273 60.682 101.273 61.246ZM118.074 64.144C116.922 64.144 116.094 63.91 115.59 63.442C115.098 62.974 114.852 62.182 114.852 61.066V56.224H113.448V55.216L114.852 54.964L115.392 52.354H116.364V54.964L119.442 54.982V56.242L116.364 56.224V61.066C116.364 61.558 116.424 61.93 116.544 62.182C116.664 62.434 116.862 62.608 117.138 62.704C117.414 62.8 117.816 62.848 118.344 62.848C118.752 62.848 119.178 62.806 119.622 62.722V63.982C119.19 64.09 118.674 64.144 118.074 64.144ZM133.845 63.01V64H131.703L131.235 62.704C130.743 63.208 130.209 63.58 129.633 63.82C129.069 64.06 128.433 64.18 127.725 64.18C126.573 64.18 125.721 63.958 125.169 63.514C124.617 63.07 124.341 62.35 124.341 61.354C124.341 60.298 124.671 59.536 125.331 59.068C125.991 58.588 127.053 58.348 128.517 58.348C129.093 58.348 129.597 58.402 130.029 58.51C130.473 58.606 130.833 58.726 131.109 58.87V58.168C131.109 57.616 131.037 57.19 130.893 56.89C130.761 56.578 130.515 56.356 130.155 56.224C129.807 56.08 129.297 56.008 128.625 56.008C127.413 56.008 126.153 56.152 124.845 56.44V55.144C126.177 54.856 127.449 54.712 128.661 54.712C129.789 54.712 130.635 54.826 131.199 55.054C131.775 55.282 132.153 55.612 132.333 56.044C132.525 56.476 132.621 57.076 132.621 57.844V62.47L133.845 63.01ZM125.925 61.246C125.925 61.834 126.069 62.254 126.357 62.506C126.657 62.758 127.197 62.884 127.977 62.884C128.553 62.884 129.105 62.782 129.633 62.578C130.173 62.362 130.665 62.068 131.109 61.696V59.896C130.437 59.704 129.627 59.608 128.679 59.608C127.635 59.608 126.915 59.74 126.519 60.004C126.123 60.268 125.925 60.682 125.925 61.246ZM158.415 63.01V64H154.275V63.01L155.535 62.524L154.562 59.878H149.253L148.263 62.542L149.541 63.01V64H145.707V63.01L146.949 62.452L151.053 51.616H153.069L157.173 62.434L158.415 63.01ZM154.095 58.6L151.917 52.696L149.721 58.6H154.095ZM173.007 63.01V64H170.271V58.042C170.271 57.334 170.097 56.824 169.749 56.512C169.413 56.188 168.915 56.026 168.255 56.026C167.835 56.026 167.421 56.08 167.013 56.188C166.617 56.296 166.035 56.488 165.267 56.764V62.47L166.671 63.01V64H162.531V63.01L163.755 62.47V56.494L162.531 55.99V54.964H164.529L164.997 55.702C165.669 55.354 166.305 55.102 166.905 54.946C167.505 54.79 168.117 54.712 168.741 54.712C169.497 54.712 170.097 54.832 170.541 55.072C170.985 55.3 171.303 55.672 171.495 56.188C171.687 56.692 171.783 57.376 171.783 58.24V62.47L173.007 63.01ZM187.138 63.01V64H184.996L184.528 62.704C184.036 63.208 183.502 63.58 182.926 63.82C182.362 64.06 181.726 64.18 181.018 64.18C179.866 64.18 179.014 63.958 178.462 63.514C177.91 63.07 177.634 62.35 177.634 61.354C177.634 60.298 177.964 59.536 178.624 59.068C179.284 58.588 180.346 58.348 181.81 58.348C182.386 58.348 182.89 58.402 183.322 58.51C183.766 58.606 184.126 58.726 184.402 58.87V58.168C184.402 57.616 184.33 57.19 184.186 56.89C184.054 56.578 183.808 56.356 183.448 56.224C183.1 56.08 182.59 56.008 181.918 56.008C180.706 56.008 179.446 56.152 178.138 56.44V55.144C179.47 54.856 180.742 54.712 181.954 54.712C183.082 54.712 183.928 54.826 184.492 55.054C185.068 55.282 185.446 55.612 185.626 56.044C185.818 56.476 185.914 57.076 185.914 57.844V62.47L187.138 63.01ZM179.218 61.246C179.218 61.834 179.362 62.254 179.65 62.506C179.95 62.758 180.49 62.884 181.27 62.884C181.846 62.884 182.398 62.782 182.926 62.578C183.466 62.362 183.958 62.068 184.402 61.696V59.896C183.73 59.704 182.92 59.608 181.972 59.608C180.928 59.608 180.208 59.74 179.812 60.004C179.416 60.268 179.218 60.682 179.218 61.246ZM194.032 62.47L195.256 63.01V64H191.296V63.01L192.52 62.47V52.75L191.296 52.246V51.22H194.032V62.47ZM210.318 54.964V55.972L208.842 56.476L204.864 65.35C204.564 66.034 204.228 66.562 203.856 66.934C203.496 67.318 203.034 67.594 202.47 67.762C201.918 67.942 201.198 68.032 200.31 68.032H199.95V66.7C200.406 66.736 200.844 66.754 201.264 66.754C201.72 66.754 202.08 66.694 202.344 66.574C202.62 66.454 202.89 66.202 203.154 65.818C203.43 65.446 203.76 64.846 204.144 64.018L200.688 56.476L199.212 55.972V54.964H203.802V55.972L202.344 56.458L204.936 62.272L207.492 56.458L206.034 55.972V54.964H210.318ZM219.493 58.888C220.321 59.044 220.939 59.218 221.347 59.41C221.755 59.602 222.031 59.854 222.175 60.166C222.319 60.466 222.391 60.892 222.391 61.444C222.391 62.128 222.265 62.674 222.013 63.082C221.773 63.478 221.341 63.772 220.717 63.964C220.105 64.156 219.235 64.252 218.107 64.252C217.531 64.252 216.973 64.222 216.433 64.162C215.893 64.114 215.239 64.024 214.471 63.892V61.3H215.551L216.073 62.83C216.709 62.938 217.405 62.992 218.161 62.992C218.905 62.992 219.463 62.956 219.835 62.884C220.207 62.8 220.459 62.668 220.591 62.488C220.735 62.296 220.807 62.02 220.807 61.66C220.807 61.336 220.741 61.096 220.609 60.94C220.477 60.772 220.279 60.652 220.015 60.58C219.763 60.508 219.319 60.424 218.683 60.328L217.459 60.112C216.607 59.956 215.965 59.782 215.533 59.59C215.101 59.398 214.795 59.14 214.615 58.816C214.447 58.48 214.363 58.012 214.363 57.412C214.363 56.752 214.477 56.23 214.705 55.846C214.945 55.462 215.353 55.18 215.929 55C216.505 54.808 217.315 54.712 218.359 54.712C219.403 54.712 220.639 54.832 222.067 55.072V57.574H221.023L220.537 56.17C219.745 56.038 218.995 55.972 218.287 55.972C217.663 55.972 217.183 56.014 216.847 56.098C216.511 56.182 216.277 56.314 216.145 56.494C216.013 56.674 215.947 56.932 215.947 57.268C215.947 57.604 216.019 57.856 216.163 58.024C216.307 58.18 216.541 58.306 216.865 58.402C217.189 58.486 217.753 58.594 218.557 58.726C218.857 58.762 219.169 58.816 219.493 58.888ZM231.361 64.144C230.209 64.144 229.381 63.91 228.877 63.442C228.385 62.974 228.139 62.182 228.139 61.066V56.224H226.735V55.216L228.139 54.964L228.679 52.354H229.651V54.964L232.729 54.982V56.242L229.651 56.224V61.066C229.651 61.558 229.711 61.93 229.831 62.182C229.951 62.434 230.149 62.608 230.425 62.704C230.701 62.8 231.103 62.848 231.631 62.848C232.039 62.848 232.465 62.806 232.909 62.722V63.982C232.477 64.09 231.961 64.144 231.361 64.144ZM250.179 52.786L248.847 53.308V62.47L250.179 63.01V64H245.967V63.01L247.299 62.47V53.308L245.967 52.786V51.76H250.179V52.786ZM265.619 63.01V64H262.883V58.042C262.883 57.334 262.709 56.824 262.361 56.512C262.025 56.188 261.527 56.026 260.867 56.026C260.447 56.026 260.033 56.08 259.625 56.188C259.229 56.296 258.647 56.488 257.879 56.764V62.47L259.283 63.01V64H255.143V63.01L256.367 62.47V56.494L255.143 55.99V54.964H257.141L257.609 55.702C258.281 55.354 258.917 55.102 259.517 54.946C260.117 54.79 260.729 54.712 261.353 54.712C262.109 54.712 262.709 54.832 263.153 55.072C263.597 55.3 263.915 55.672 264.107 56.188C264.299 56.692 264.395 57.376 264.395 58.24V62.47L265.619 63.01ZM274.494 64.144C273.342 64.144 272.514 63.91 272.01 63.442C271.518 62.974 271.272 62.182 271.272 61.066V56.224H269.868V55.216L271.272 54.964L271.812 52.354H272.784V54.964L275.862 54.982V56.242L272.784 56.224V61.066C272.784 61.558 272.844 61.93 272.964 62.182C273.084 62.434 273.282 62.608 273.558 62.704C273.834 62.8 274.236 62.848 274.764 62.848C275.172 62.848 275.598 62.806 276.042 62.722V63.982C275.61 64.09 275.094 64.144 274.494 64.144ZM284.996 54.712C286.22 54.712 287.21 55.096 287.966 55.864C288.734 56.62 289.118 57.748 289.118 59.248V59.968H282.062C282.122 60.772 282.266 61.39 282.494 61.822C282.734 62.242 283.076 62.536 283.52 62.704C283.976 62.872 284.6 62.956 285.392 62.956C286.532 62.956 287.66 62.818 288.776 62.542V63.838C288.308 63.958 287.762 64.054 287.138 64.126C286.514 64.21 285.92 64.252 285.356 64.252C283.76 64.252 282.548 63.892 281.72 63.172C280.892 62.452 280.478 61.222 280.478 59.482C280.478 57.862 280.886 56.662 281.702 55.882C282.518 55.102 283.616 54.712 284.996 54.712ZM284.906 56.008C283.97 56.008 283.286 56.218 282.854 56.638C282.422 57.058 282.164 57.742 282.08 58.69H287.516C287.444 57.802 287.198 57.136 286.778 56.692C286.358 56.236 285.734 56.008 284.906 56.008ZM299.931 54.676C300.459 54.676 300.843 54.802 301.083 55.054C301.323 55.306 301.443 55.696 301.443 56.224C301.443 57.196 300.891 57.682 299.787 57.682L299.067 56.062C298.599 56.182 298.125 56.35 297.645 56.566C297.177 56.77 296.757 56.992 296.385 57.232V62.47L298.059 63.01V64H293.649V63.01L294.873 62.47V56.494L293.649 55.99V54.964H295.647L296.331 56.044C296.931 55.6 297.543 55.264 298.167 55.036C298.791 54.796 299.379 54.676 299.931 54.676ZM310.298 54.712C311.522 54.712 312.512 55.096 313.268 55.864C314.036 56.62 314.42 57.748 314.42 59.248V59.968H307.364C307.424 60.772 307.568 61.39 307.796 61.822C308.036 62.242 308.378 62.536 308.822 62.704C309.278 62.872 309.902 62.956 310.694 62.956C311.834 62.956 312.962 62.818 314.078 62.542V63.838C313.61 63.958 313.064 64.054 312.44 64.126C311.816 64.21 311.222 64.252 310.658 64.252C309.062 64.252 307.85 63.892 307.022 63.172C306.194 62.452 305.78 61.222 305.78 59.482C305.78 57.862 306.188 56.662 307.004 55.882C307.82 55.102 308.918 54.712 310.298 54.712ZM310.208 56.008C309.272 56.008 308.588 56.218 308.156 56.638C307.724 57.058 307.466 57.742 307.382 58.69H312.818C312.746 57.802 312.5 57.136 312.08 56.692C311.66 56.236 311.036 56.008 310.208 56.008ZM323.973 58.888C324.801 59.044 325.419 59.218 325.827 59.41C326.235 59.602 326.511 59.854 326.655 60.166C326.799 60.466 326.871 60.892 326.871 61.444C326.871 62.128 326.745 62.674 326.493 63.082C326.253 63.478 325.821 63.772 325.197 63.964C324.585 64.156 323.715 64.252 322.587 64.252C322.011 64.252 321.453 64.222 320.913 64.162C320.373 64.114 319.719 64.024 318.951 63.892V61.3H320.031L320.553 62.83C321.189 62.938 321.885 62.992 322.641 62.992C323.385 62.992 323.943 62.956 324.315 62.884C324.687 62.8 324.939 62.668 325.071 62.488C325.215 62.296 325.287 62.02 325.287 61.66C325.287 61.336 325.221 61.096 325.089 60.94C324.957 60.772 324.759 60.652 324.495 60.58C324.243 60.508 323.799 60.424 323.163 60.328L321.939 60.112C321.087 59.956 320.445 59.782 320.013 59.59C319.581 59.398 319.275 59.14 319.095 58.816C318.927 58.48 318.843 58.012 318.843 57.412C318.843 56.752 318.957 56.23 319.185 55.846C319.425 55.462 319.833 55.18 320.409 55C320.985 54.808 321.795 54.712 322.839 54.712C323.883 54.712 325.119 54.832 326.547 55.072V57.574H325.503L325.017 56.17C324.225 56.038 323.475 55.972 322.767 55.972C322.143 55.972 321.663 56.014 321.327 56.098C320.991 56.182 320.757 56.314 320.625 56.494C320.493 56.674 320.427 56.932 320.427 57.268C320.427 57.604 320.499 57.856 320.643 58.024C320.787 58.18 321.021 58.306 321.345 58.402C321.669 58.486 322.233 58.594 323.037 58.726C323.337 58.762 323.649 58.816 323.973 58.888ZM335.842 64.144C334.69 64.144 333.862 63.91 333.358 63.442C332.866 62.974 332.62 62.182 332.62 61.066V56.224H331.216V55.216L332.62 54.964L333.16 52.354H334.132V54.964L337.21 54.982V56.242L334.132 56.224V61.066C334.132 61.558 334.192 61.93 334.312 62.182C334.432 62.434 334.63 62.608 334.906 62.704C335.182 62.8 335.584 62.848 336.112 62.848C336.52 62.848 336.946 62.806 337.39 62.722V63.982C336.958 64.09 336.442 64.144 335.842 64.144ZM347.113 58.888C347.941 59.044 348.559 59.218 348.967 59.41C349.375 59.602 349.651 59.854 349.795 60.166C349.939 60.466 350.011 60.892 350.011 61.444C350.011 62.128 349.885 62.674 349.633 63.082C349.393 63.478 348.961 63.772 348.337 63.964C347.725 64.156 346.855 64.252 345.727 64.252C345.151 64.252 344.593 64.222 344.053 64.162C343.513 64.114 342.859 64.024 342.091 63.892V61.3H343.171L343.693 62.83C344.329 62.938 345.025 62.992 345.781 62.992C346.525 62.992 347.083 62.956 347.455 62.884C347.827 62.8 348.079 62.668 348.211 62.488C348.355 62.296 348.427 62.02 348.427 61.66C348.427 61.336 348.361 61.096 348.229 60.94C348.097 60.772 347.899 60.652 347.635 60.58C347.383 60.508 346.939 60.424 346.303 60.328L345.079 60.112C344.227 59.956 343.585 59.782 343.153 59.59C342.721 59.398 342.415 59.14 342.235 58.816C342.067 58.48 341.983 58.012 341.983 57.412C341.983 56.752 342.097 56.23 342.325 55.846C342.565 55.462 342.973 55.18 343.549 55C344.125 54.808 344.935 54.712 345.979 54.712C347.023 54.712 348.259 54.832 349.687 55.072V57.574H348.643L348.157 56.17C347.365 56.038 346.615 55.972 345.907 55.972C345.283 55.972 344.803 56.014 344.467 56.098C344.131 56.182 343.897 56.314 343.765 56.494C343.633 56.674 343.567 56.932 343.567 57.268C343.567 57.604 343.639 57.856 343.783 58.024C343.927 58.18 344.161 58.306 344.485 58.402C344.809 58.486 345.373 58.594 346.177 58.726C346.477 58.762 346.789 58.816 347.113 58.888Z" fill="black"/>
<path d="M99.136 29.68V31H93.616V29.68L95.296 29.032L94 25.504H86.92L85.6 29.056L87.304 29.68V31H82.192V29.68L83.848 28.936L89.32 14.488H92.008L97.48 28.912L99.136 29.68ZM93.376 23.8L90.472 15.928L87.544 23.8H93.376ZM113.222 29.68V31H110.366L109.742 29.272C109.07 29.944 108.35 30.44 107.582 30.76C106.83 31.08 105.958 31.24 104.966 31.24C103.878 31.24 102.982 31.056 102.278 30.688C101.59 30.304 101.07 29.664 100.718 28.768C100.366 27.856 100.19 26.608 100.19 25.024C100.19 22.768 100.622 21.136 101.486 20.128C102.35 19.12 103.582 18.616 105.182 18.616C105.918 18.616 106.638 18.72 107.342 18.928C108.046 19.136 108.79 19.472 109.574 19.936V16L107.942 15.328V13.96H111.59V28.96L113.222 29.68ZM102.302 25.216C102.302 26.32 102.406 27.184 102.614 27.808C102.838 28.432 103.174 28.872 103.622 29.128C104.07 29.368 104.654 29.488 105.374 29.488C106.862 29.488 108.262 28.968 109.574 27.928V21.352C108.566 20.984 107.798 20.728 107.27 20.584C106.758 20.44 106.222 20.368 105.662 20.368C104.462 20.368 103.598 20.768 103.07 21.568C102.558 22.352 102.302 23.568 102.302 25.216ZM117.615 13.696C118.111 13.696 118.503 13.84 118.791 14.128C119.095 14.416 119.247 14.824 119.247 15.352C119.247 15.88 119.095 16.288 118.791 16.576C118.503 16.864 118.111 17.008 117.615 17.008C117.119 17.008 116.719 16.864 116.415 16.576C116.127 16.288 115.983 15.88 115.983 15.352C115.983 14.824 116.127 14.416 116.415 14.128C116.719 13.84 117.119 13.696 117.615 13.696ZM118.815 28.96L120.447 29.68V31H115.167V29.68L116.799 28.96V20.992L115.167 20.32V18.952H118.815V28.96ZM128.073 31.192C126.537 31.192 125.433 30.88 124.761 30.256C124.105 29.632 123.777 28.576 123.777 27.088V20.632H121.905V19.288L123.777 18.952L124.497 15.472H125.793V18.952L129.897 18.976V20.656L125.793 20.632V27.088C125.793 27.744 125.873 28.24 126.033 28.576C126.193 28.912 126.457 29.144 126.825 29.272C127.193 29.4 127.729 29.464 128.433 29.464C128.977 29.464 129.545 29.408 130.137 29.296V30.976C129.561 31.12 128.873 31.192 128.073 31.192ZM146.15 18.952V20.296L144.182 20.968L138.878 32.8C138.478 33.712 138.03 34.416 137.534 34.912C137.054 35.424 136.438 35.792 135.686 36.016C134.95 36.256 133.99 36.376 132.806 36.376H132.326V34.6C132.934 34.648 133.518 34.672 134.078 34.672C134.686 34.672 135.166 34.592 135.518 34.432C135.886 34.272 136.246 33.936 136.598 33.424C136.966 32.928 137.406 32.128 137.918 31.024L133.31 20.968L131.342 20.296V18.952H137.462V20.296L135.518 20.944L138.974 28.696L142.382 20.944L140.438 20.296V18.952H146.15ZM159.948 29.68V31H157.092L156.468 29.272C155.812 29.944 155.1 30.44 154.332 30.76C153.58 31.08 152.732 31.24 151.788 31.24C150.252 31.24 149.116 30.944 148.38 30.352C147.644 29.76 147.276 28.8 147.276 27.472C147.276 26.064 147.716 25.048 148.596 24.424C149.476 23.784 150.892 23.464 152.844 23.464C153.612 23.464 154.284 23.536 154.86 23.68C155.452 23.808 155.932 23.968 156.3 24.16V23.224C156.3 22.488 156.204 21.92 156.012 21.52C155.836 21.104 155.508 20.808 155.028 20.632C154.564 20.44 153.884 20.344 152.988 20.344C151.372 20.344 149.692 20.536 147.948 20.92V19.192C149.724 18.808 151.42 18.616 153.036 18.616C154.54 18.616 155.668 18.768 156.42 19.072C157.188 19.376 157.692 19.816 157.932 20.392C158.188 20.968 158.316 21.768 158.316 22.792V28.96L159.948 29.68ZM149.388 27.328C149.388 28.112 149.58 28.672 149.964 29.008C150.364 29.344 151.084 29.512 152.124 29.512C152.892 29.512 153.628 29.376 154.332 29.104C155.052 28.816 155.708 28.424 156.3 27.928V25.528C155.404 25.272 154.324 25.144 153.06 25.144C151.668 25.144 150.708 25.32 150.18 25.672C149.652 26.024 149.388 26.576 149.388 27.328ZM183.279 14.68V16.048L181.743 16.744L176.439 24.64V28.96L178.455 29.68V31H172.359V29.68L174.375 28.96V24.64L169.095 16.744L167.535 16.048V14.68H173.151V16.048L171.471 16.744L175.575 22.984L179.679 16.744L178.023 16.048V14.68H183.279ZM196.907 29.632V31H194.243L193.619 30.016C192.691 30.48 191.827 30.816 191.027 31.024C190.243 31.232 189.443 31.336 188.627 31.336C187.603 31.336 186.795 31.184 186.203 30.88C185.627 30.56 185.211 30.064 184.955 29.392C184.699 28.704 184.571 27.784 184.571 26.632V20.992L182.939 20.272V18.952H186.587V26.896C186.587 27.84 186.811 28.528 187.259 28.96C187.723 29.376 188.395 29.584 189.275 29.584C189.835 29.584 190.379 29.512 190.907 29.368C191.451 29.224 192.235 28.968 193.259 28.6V20.944L191.627 20.272V18.952H195.275V28.96L196.907 29.632ZM211.894 29.68V31H209.038L208.414 29.272C207.742 29.944 207.022 30.44 206.254 30.76C205.502 31.08 204.63 31.24 203.638 31.24C202.55 31.24 201.654 31.056 200.95 30.688C200.262 30.304 199.742 29.664 199.39 28.768C199.038 27.856 198.862 26.608 198.862 25.024C198.862 22.768 199.294 21.136 200.158 20.128C201.022 19.12 202.254 18.616 203.854 18.616C204.59 18.616 205.31 18.72 206.014 18.928C206.718 19.136 207.462 19.472 208.246 19.936V16L206.614 15.328V13.96H210.262V28.96L211.894 29.68ZM200.974 25.216C200.974 26.32 201.078 27.184 201.286 27.808C201.51 28.432 201.846 28.872 202.294 29.128C202.742 29.368 203.326 29.488 204.046 29.488C205.534 29.488 206.934 28.968 208.246 27.928V21.352C207.238 20.984 206.47 20.728 205.942 20.584C205.43 20.44 204.894 20.368 204.334 20.368C203.134 20.368 202.27 20.768 201.742 21.568C201.23 22.352 200.974 23.568 200.974 25.216ZM227.806 29.68V31H224.158V23.056C224.158 22.112 223.926 21.432 223.462 21.016C223.014 20.584 222.35 20.368 221.47 20.368C220.91 20.368 220.358 20.44 219.814 20.584C219.286 20.728 218.51 20.984 217.486 21.352V28.96L219.118 29.68V31H213.838V29.68L215.47 28.96V16L213.838 15.328V13.96H217.486V19.792C218.302 19.376 219.078 19.08 219.814 18.904C220.566 18.712 221.334 18.616 222.118 18.616C223.126 18.616 223.926 18.776 224.518 19.096C225.11 19.4 225.534 19.896 225.79 20.584C226.046 21.256 226.174 22.168 226.174 23.32V28.96L227.806 29.68ZM242.448 29.68V31H239.592L238.968 29.272C238.312 29.944 237.6 30.44 236.832 30.76C236.08 31.08 235.232 31.24 234.288 31.24C232.752 31.24 231.616 30.944 230.88 30.352C230.144 29.76 229.776 28.8 229.776 27.472C229.776 26.064 230.216 25.048 231.096 24.424C231.976 23.784 233.392 23.464 235.344 23.464C236.112 23.464 236.784 23.536 237.36 23.68C237.952 23.808 238.432 23.968 238.8 24.16V23.224C238.8 22.488 238.704 21.92 238.512 21.52C238.336 21.104 238.008 20.808 237.528 20.632C237.064 20.44 236.384 20.344 235.488 20.344C233.872 20.344 232.192 20.536 230.448 20.92V19.192C232.224 18.808 233.92 18.616 235.536 18.616C237.04 18.616 238.168 18.768 238.92 19.072C239.688 19.376 240.192 19.816 240.432 20.392C240.688 20.968 240.816 21.768 240.816 22.792V28.96L242.448 29.68ZM231.888 27.328C231.888 28.112 232.08 28.672 232.464 29.008C232.864 29.344 233.584 29.512 234.624 29.512C235.392 29.512 236.128 29.376 236.832 29.104C237.552 28.816 238.208 28.424 238.8 27.928V25.528C237.904 25.272 236.824 25.144 235.56 25.144C234.168 25.144 233.208 25.32 232.68 25.672C232.152 26.024 231.888 26.576 231.888 27.328ZM255.183 24.52V28.936L256.959 29.68V31H251.343V29.68L253.119 28.936V16.744L251.343 16.048V14.68H260.895C262.447 14.68 263.623 15.096 264.423 15.928C265.223 16.76 265.623 17.984 265.623 19.6C265.623 21.216 265.199 22.44 264.351 23.272C263.519 24.104 262.295 24.52 260.679 24.52H255.183ZM263.463 19.6C263.463 18.48 263.239 17.672 262.791 17.176C262.359 16.664 261.663 16.408 260.703 16.408H255.183V22.792H260.463C261.535 22.792 262.303 22.544 262.767 22.048C263.231 21.552 263.463 20.736 263.463 19.6ZM272.992 18.616C274.624 18.616 275.944 19.128 276.952 20.152C277.976 21.16 278.488 22.664 278.488 24.664V25.624H269.08C269.16 26.696 269.352 27.52 269.656 28.096C269.976 28.656 270.432 29.048 271.024 29.272C271.632 29.496 272.464 29.608 273.52 29.608C275.04 29.608 276.544 29.424 278.032 29.056V30.784C277.408 30.944 276.68 31.072 275.848 31.168C275.016 31.28 274.224 31.336 273.472 31.336C271.344 31.336 269.728 30.856 268.624 29.896C267.52 28.936 266.968 27.296 266.968 24.976C266.968 22.816 267.512 21.216 268.6 20.176C269.688 19.136 271.152 18.616 272.992 18.616ZM272.872 20.344C271.624 20.344 270.712 20.624 270.136 21.184C269.56 21.744 269.216 22.656 269.104 23.92H276.352C276.256 22.736 275.928 21.848 275.368 21.256C274.808 20.648 273.976 20.344 272.872 20.344ZM288.707 18.568C289.411 18.568 289.923 18.736 290.243 19.072C290.563 19.408 290.723 19.928 290.723 20.632C290.723 21.928 289.987 22.576 288.515 22.576L287.555 20.416C286.931 20.576 286.299 20.8 285.659 21.088C285.035 21.36 284.475 21.656 283.979 21.976V28.96L286.211 29.68V31H280.331V29.68L281.963 28.96V20.992L280.331 20.32V18.952H282.995L283.907 20.392C284.707 19.8 285.523 19.352 286.355 19.048C287.187 18.728 287.971 18.568 288.707 18.568ZM305.456 29.68V31H302.6L301.976 29.272C301.304 29.944 300.584 30.44 299.816 30.76C299.064 31.08 298.192 31.24 297.2 31.24C296.112 31.24 295.216 31.056 294.512 30.688C293.824 30.304 293.304 29.664 292.952 28.768C292.6 27.856 292.424 26.608 292.424 25.024C292.424 22.768 292.856 21.136 293.72 20.128C294.584 19.12 295.816 18.616 297.416 18.616C298.152 18.616 298.872 18.72 299.576 18.928C300.28 19.136 301.024 19.472 301.808 19.936V16L300.176 15.328V13.96H303.824V28.96L305.456 29.68ZM294.536 25.216C294.536 26.32 294.64 27.184 294.848 27.808C295.072 28.432 295.408 28.872 295.856 29.128C296.304 29.368 296.888 29.488 297.608 29.488C299.096 29.488 300.496 28.968 301.808 27.928V21.352C300.8 20.984 300.032 20.728 299.504 20.584C298.992 20.44 298.456 20.368 297.896 20.368C296.696 20.368 295.832 20.768 295.304 21.568C294.792 22.352 294.536 23.568 294.536 25.216ZM320.097 29.68V31H317.241L316.617 29.272C315.961 29.944 315.249 30.44 314.481 30.76C313.729 31.08 312.881 31.24 311.937 31.24C310.401 31.24 309.265 30.944 308.529 30.352C307.793 29.76 307.425 28.8 307.425 27.472C307.425 26.064 307.865 25.048 308.745 24.424C309.625 23.784 311.041 23.464 312.993 23.464C313.761 23.464 314.433 23.536 315.009 23.68C315.601 23.808 316.081 23.968 316.449 24.16V23.224C316.449 22.488 316.353 21.92 316.161 21.52C315.985 21.104 315.657 20.808 315.177 20.632C314.713 20.44 314.033 20.344 313.137 20.344C311.521 20.344 309.841 20.536 308.097 20.92V19.192C309.873 18.808 311.569 18.616 313.185 18.616C314.689 18.616 315.817 18.768 316.569 19.072C317.337 19.376 317.841 19.816 318.081 20.392C318.337 20.968 318.465 21.768 318.465 22.792V28.96L320.097 29.68ZM309.537 27.328C309.537 28.112 309.729 28.672 310.113 29.008C310.513 29.344 311.233 29.512 312.273 29.512C313.041 29.512 313.777 29.376 314.481 29.104C315.201 28.816 315.857 28.424 316.449 27.928V25.528C315.553 25.272 314.473 25.144 313.209 25.144C311.817 25.144 310.857 25.32 310.329 25.672C309.801 26.024 309.537 26.576 309.537 27.328ZM336.017 29.68V31H332.369V23.056C332.369 22.112 332.137 21.432 331.673 21.016C331.225 20.584 330.561 20.368 329.681 20.368C329.121 20.368 328.569 20.44 328.025 20.584C327.497 20.728 326.721 20.984 325.697 21.352V28.96L327.569 29.68V31H322.049V29.68L323.681 28.96V20.992L322.049 20.32V18.952H324.713L325.337 19.936C326.233 19.472 327.081 19.136 327.881 18.928C328.681 18.72 329.497 18.616 330.329 18.616C331.337 18.616 332.137 18.776 332.729 19.096C333.321 19.4 333.745 19.896 334.001 20.584C334.257 21.256 334.385 22.168 334.385 23.32V28.96L336.017 29.68ZM350.659 29.68V31H347.803L347.179 29.272C346.523 29.944 345.811 30.44 345.043 30.76C344.291 31.08 343.443 31.24 342.499 31.24C340.963 31.24 339.827 30.944 339.091 30.352C338.355 29.76 337.987 28.8 337.987 27.472C337.987 26.064 338.427 25.048 339.307 24.424C340.187 23.784 341.603 23.464 343.555 23.464C344.323 23.464 344.995 23.536 345.571 23.68C346.163 23.808 346.643 23.968 347.011 24.16V23.224C347.011 22.488 346.915 21.92 346.723 21.52C346.547 21.104 346.219 20.808 345.739 20.632C345.275 20.44 344.595 20.344 343.699 20.344C342.083 20.344 340.403 20.536 338.659 20.92V19.192C340.435 18.808 342.131 18.616 343.747 18.616C345.251 18.616 346.379 18.768 347.131 19.072C347.899 19.376 348.403 19.816 348.643 20.392C348.899 20.968 349.027 21.768 349.027 22.792V28.96L350.659 29.68ZM340.099 27.328C340.099 28.112 340.291 28.672 340.675 29.008C341.075 29.344 341.795 29.512 342.835 29.512C343.603 29.512 344.339 29.376 345.043 29.104C345.763 28.816 346.419 28.424 347.011 27.928V25.528C346.115 25.272 345.035 25.144 343.771 25.144C342.379 25.144 341.419 25.32 340.891 25.672C340.363 26.024 340.099 26.576 340.099 27.328Z" fill="black"/>
</g>
<defs>
<filter id="filter0_d_4_45" x="0" y="5" width="354.659" height="75" filterUnits="userSpaceOnUse" color-interpolation-filters="sRGB">
<feFlood flood-opacity="0" result="BackgroundImageFix"/>
<feColorMatrix in="SourceAlpha" type="matrix" values="0 0 0 0 0 0 0 0 0 0 0 0 0 0 0 0 0 0 127 0" result="hardAlpha"/>
<feOffset dy="4"/>
<feGaussianBlur stdDeviation="2"/>
<feComposite in2="hardAlpha" operator="out"/>
<feColorMatrix type="matrix" values="0 0 0 0 1 0 0 0 0 1 0 0 0 0 1 0 0 0 0.25 0"/>
<feBlend mode="normal" in2="BackgroundImageFix" result="effect1_dropShadow_4_45"/>
<feBlend mode="normal" in="SourceGraphic" in2="effect1_dropShadow_4_45" result="shape"/>
</filter>
</defs>
</svg>
