<svg width="556" height="82" viewBox="0 0 556 82" fill="none" xmlns="http://www.w3.org/2000/svg">
<g filter="url(#filter0_d_4_45)">
<circle cx="37.5" cy="38.5" r="32" stroke="black" stroke-width="3"/>
<path d="M54.272 50.36V53H43.232V50.36L46.592 49.064L44 42.008H29.84L27.2 49.112L30.608 50.36V53H20.384V50.36L23.696 48.872L34.64 19.976H40.016L50.96 48.824L54.272 50.36ZM42.752 38.6L36.944 22.856L31.088 38.6H42.752Z" fill="black"/>
<path d="M89.452 51.76C91.048 51.76 92.362 52.222 93.394 53.146C94.426 54.07 94.942 55.636 94.942 57.844C94.942 60.088 94.426 61.678 93.394 62.614C92.362 63.538 91.048 64 89.452 64H82.99V63.01L84.61 62.452V53.308L82.99 52.786V51.76H89.452ZM86.158 53.056V62.704H89.074C89.974 62.704 90.73 62.572 91.342 62.308C91.954 62.032 92.434 61.54 92.782 60.832C93.142 60.112 93.322 59.116 93.322 57.844C93.322 56.596 93.142 55.624 92.782 54.928C92.434 54.22 91.954 53.734 91.342 53.47C90.73 53.194 89.974 53.056 89.074 53.056H86.158ZM109.193 63.01V64H107.051L106.583 62.704C106.091 63.208 105.557 63.58 104.981 63.82C104.417 64.06 103.781 64.18 103.073 64.18C101.921 64.18 101.069 63.958 100.517 63.514C99.9654 63.07 99.6894 62.35 99.6894 61.354C99.6894 60.298 100.019 59.536 100.679 59.068C101.339 58.588 102.401 58.348 103.865 58.348C104.441 58.348 104.945 58.402 105.377 58.51C105.821 58.606 106.181 58.726 106.457 58.87V58.168C106.457 57.616 106.385 57.19 106.241 56.89C106.109 56.578 105.863 56.356 105.503 56.224C105.155 56.08 104.645 56.008 103.973 56.008C102.761 56.008 101.501 56.152 100.193 56.44V55.144C101.525 54.856 102.797 54.712 104.009 54.712C105.137 54.712 105.983 54.826 106.547 55.054C107.123 55.282 107.501 55.612 107.681 56.044C107.873 56.476 107.969 57.076 107.969 57.844V62.47L109.193 63.01ZM101.273 61.246C101.273 61.834 101.417 62.254 101.705 62.506C102.005 62.758 102.545 62.884 103.325 62.884C103.901 62.884 104.453 62.782 104.981 62.578C105.521 62.362 106.013 62.068 106.457 61.696V59.896C105.785 59.704 104.975 59.608 104.027 59.608C102.983 59.608 102.263 59.74 101.867 60.004C101.471 60.268 101.273 60.682 101.273 61.246ZM118.074 64.144C116.922 64.144 116.094 63.91 115.59 63.442C115.098 62.974 114.852 62.182 114.852 61.066V56.224H113.448V55.216L114.852 54.964L115.392 52.354H116.364V54.964L119.442 54.982V56.242L116.364 56.224V61.066C116.364 61.558 116.424 61.93 116.544 62.182C116.664 62.434 116.862 62.608 117.138 62.704C117.414 62.8 117.816 62.848 118.344 62.848C118.752 62.848 119.178 62.806 119.622 62.722V63.982C119.19 64.09 118.674 64.144 118.074 64.144ZM133.845 63.01V64H131.703L131.235 62.704C130.743 63.208 130.209 63.58 129.633 63.82C129.069 64.06 128.433 64.18 127.725 64.18C126.573 64.18 125.721 63.958 125.169 63.514C124.617 63.07 124.341 62.35 124.341 61.354C124.341 60.298 124.671 59.536 125.331 59.068C125.991 58.588 127.053 58.348 128.517 58.348C129.093 58.348 129.597 58.402 130.029 58.51C130.473 58.606 130.833 58.726 131.109 58.87V58.168C131.109 57.616 131.037 57.19 130.893 56.89C130.761 56.578 130.515 56.356 130.155 56.224C129.807 56.08 129.297 56.008 128.625 56.008C127.413 56.008 126.153 56.152 124.845 56.44V55.144C126.177 54.856 127.449 54.712 128.661 54.712C129.789 54.712 130.635 54.826 131.199 55.054C131.775 55.282 132.153 55.612 132.333 56.044C132.525 56.476 132.621 57.076 132.621 57.844V62.47L133.845 63.01ZM125.925 61.246C125.925 61.834 126.069 62.254 126.357 62.506C126.657 62.758 127.197 62.884 127.977 62.884C128.553 62.884 129.105 62.782 129.633 62.578C130.173 62.362 130.665 62.068 131.109 61.696V59.896C130.437 59.704 129.627 59.608 128.679 59.608C127.635 59.608 126.915 59.74 126.519 60.004C126.123 60.268 125.925 60.682 125.925 61.246ZM158.415 63.01V64H154.275V63.01L155.535 62.524L154.562 59.878H149.253L148.263 62.542L149.541 63.01V64H145.707V63.01L146.949 62.452L151.053 51.616H153.069L157.173 62.434L158.415 63.01ZM154.095 58.6L151.917 52.696L149.721 58.6H154.095ZM173.007 63.01V64H170.271V58.042C170.271 57.334 170.097 56.824 169.749 56.512C169.413 56.188 168.915 56.026 168.255 56.026C167.835 56.026 167.421 56.08 167.013 56.188C166.617 56.296 166.035 56.488 165.267 56.764V62.47L166.671 63.01V64H162.531V63.01L163.755 62.47V56.494L162.531 55.99V54.964H164.529L164.997 55.702C165.669 55.354 166.305 55.102 166.905 54.946C167.505 54.79 168.117 54.712 168.741 54.712C169.497 54.712 170.097 54.832 170.541 55.072C170.985 55.3 171.303 55.672 171.495 56.188C171.687 56.692 171.783 57.376 171.783 58.24V62.47L173.007 63.01ZM187.138 63.01V64H184.996L184.528 62.704C184.036 63.208 183.502 63.58 182.926 63.82C182.362 64.06 181.726 64.18 181.018 64.18C179.866 64.18 179.014 63.958 178.462 63.514C177.91 63.07 177.634 62.35 177.634 61.354C177.634 60.298 177.964 59.536 178.624 59.068C179.284 58.588 180.346 58.348 181.81 58.348C182.386 58.348 182.89 58.402 183.322 58.51C183.766 58.606 184.126 58.726 184.402 58.87V58.168C184.402 57.616 184.33 57.19 184.186 56.89C184.054 56.578 183.808 56.356 183.448 56.224C183.1 56.08 182.59 56.008 181.918 56.008C180.706 56.008 179.446 56.152 178.138 56.44V55.144C179.47 54.856 180.742 54.712 181.954 54.712C183.082 54.712 183.928 54.826 184.492 55.054C185.068 55.282 185.446 55.612 185.626 56.044C185.818 56.476 185.914 57.076 185.914 57.844V62.47L187.138 63.01ZM179.218 61.246C179.218 61.834 179.362 62.254 179.65 62.506C179.95 62.758 180.49 62.884 181.27 62.884C181.846 62.884 182.398 62.782 182.926 62.578C183.466 62.362 183.958 62.068 184.402 61.696V59.896C183.73 59.704 182.92 59.608 181.972 59.608C180.928 59.608 180.208 59.74 179.812 60.004C179.416 60.268 179.218 60.682 179.218 61.246ZM194.032 62.47L195.256 63.01V64H191.296V63.01L192.52 62.47V52.75L191.296 52.246V51.22H194.032V62.47ZM210.318 54.964V55.972L208.842 56.476L204.864 65.35C204.564 66.034 204.228 66.562 203.856 66.934C203.496 67.318 203.034 67.594 202.47 67.762C201.918 67.942 201.198 68.032 200.31 68.032H199.95V66.7C200.406 66.736 200.844 66.754 201.264 66.754C201.72 66.754 202.08 66.694 202.344 66.574C202.62 66.454 202.89 66.202 203.154 65.818C203.43 65.446 203.76 64.846 204.144 64.018L200.688 56.476L199.212 55.972V54.964H203.802V55.972L202.344 56.458L204.936 62.272L207.492 56.458L206.034 55.972V54.964H210.318ZM219.493 58.888C220.321 59.044 220.939 59.218 221.347 59.41C221.755 59.602 222.031 59.854 222.175 60.166C222.319 60.466 222.391 60.892 222.391 61.444C222.391 62.128 222.265 62.674 222.013 63.082C221.773 63.478 221.341 63.772 220.717 63.964C220.105 64.156 219.235 64.252 218.107 64.252C217.531 64.252 216.973 64.222 216.433 64.162C215.893 64.114 215.239 64.024 214.471 63.892V61.3H215.551L216.073 62.83C216.709 62.938 217.405 62.992 218.161 62.992C218.905 62.992 219.463 62.956 219.835 62.884C220.207 62.8 220.459 62.668 220.591 62.488C220.735 62.296 220.807 62.02 220.807 61.66C220.807 61.336 220.741 61.096 220.609 60.94C220.477 60.772 220.279 60.652 220.015 60.58C219.763 60.508 219.319 60.424 218.683 60.328L217.459 60.112C216.607 59.956 215.965 59.782 215.533 59.59C215.101 59.398 214.795 59.14 214.615 58.816C214.447 58.48 214.363 58.012 214.363 57.412C214.363 56.752 214.477 56.23 214.705 55.846C214.945 55.462 215.353 55.18 215.929 55C216.505 54.808 217.315 54.712 218.359 54.712C219.403 54.712 220.639 54.832 222.067 55.072V57.574H221.023L220.537 56.17C219.745 56.038 218.995 55.972 218.287 55.972C217.663 55.972 217.183 56.014 216.847 56.098C216.511 56.182 216.277 56.314 216.145 56.494C216.013 56.674 215.947 56.932 215.947 57.268C215.947 57.604 216.019 57.856 216.163 58.024C216.307 58.18 216.541 58.306 216.865 58.402C217.189 58.486 217.753 58.594 218.557 58.726C218.857 58.762 219.169 58.816 219.493 58.888ZM231.361 64.144C230.209 64.144 229.381 63.91 228.877 63.442C228.385 62.974 228.139 62.182 228.139 61.066V56.224H226.735V55.216L228.139 54.964L228.679 52.354H229.651V54.964L232.729 54.982V56.242L229.651 56.224V61.066C229.651 61.558 229.711 61.93 229.831 62.182C229.951 62.434 230.149 62.608 230.425 62.704C230.701 62.8 231.103 62.848 231.631 62.848C232.039 62.848 232.465 62.806 232.909 62.722V63.982C232.477 64.09 231.961 64.144 231.361 64.144ZM255.489 58.348C255.393 59.56 255.075 60.628 254.535 61.552L255.363 62.47L256.641 63.01V64H254.679L253.617 62.758C252.609 63.73 251.355 64.216 249.855 64.216C248.523 64.216 247.491 63.91 246.759 63.298C246.027 62.674 245.661 61.768 245.661 60.58C245.661 59.92 245.745 59.368 245.913 58.924C246.081 58.468 246.369 58.066 246.777 57.718C247.185 57.37 247.761 57.04 248.505 56.728C248.169 56.224 247.935 55.78 247.803 55.396C247.671 55 247.605 54.598 247.605 54.19C247.605 52.426 248.619 51.544 250.647 51.544C251.523 51.544 252.177 51.748 252.609 52.156C253.053 52.564 253.275 53.14 253.275 53.884C253.275 54.628 253.077 55.24 252.681 55.72C252.285 56.188 251.559 56.644 250.503 57.088L253.761 60.688C254.073 60.004 254.229 59.224 254.229 58.348L253.257 57.79V56.8H256.641V57.79L255.489 58.348ZM250.647 52.678C249.579 52.678 249.045 53.176 249.045 54.172C249.045 54.772 249.303 55.462 249.819 56.242C250.407 56.014 250.851 55.798 251.151 55.594C251.463 55.39 251.679 55.168 251.799 54.928C251.919 54.676 251.979 54.364 251.979 53.992C251.979 53.56 251.877 53.236 251.673 53.02C251.469 52.792 251.127 52.678 250.647 52.678ZM250.071 62.884C251.211 62.884 252.141 62.56 252.861 61.912L249.171 57.628C248.427 57.952 247.923 58.312 247.659 58.708C247.407 59.092 247.281 59.644 247.281 60.364C247.281 62.044 248.211 62.884 250.071 62.884ZM275.973 51.76C277.569 51.76 278.883 52.222 279.915 53.146C280.947 54.07 281.463 55.636 281.463 57.844C281.463 60.088 280.947 61.678 279.915 62.614C278.883 63.538 277.569 64 275.973 64H269.511V63.01L271.131 62.452V53.308L269.511 52.786V51.76H275.973ZM272.679 53.056V62.704H275.595C276.495 62.704 277.251 62.572 277.863 62.308C278.475 62.032 278.955 61.54 279.303 60.832C279.663 60.112 279.843 59.116 279.843 57.844C279.843 56.596 279.663 55.624 279.303 54.928C278.955 54.22 278.475 53.734 277.863 53.47C277.251 53.194 276.495 53.056 275.595 53.056H272.679ZM295.715 63.01V64H293.573L293.105 62.704C292.613 63.208 292.079 63.58 291.503 63.82C290.939 64.06 290.303 64.18 289.595 64.18C288.443 64.18 287.591 63.958 287.039 63.514C286.487 63.07 286.211 62.35 286.211 61.354C286.211 60.298 286.541 59.536 287.201 59.068C287.861 58.588 288.923 58.348 290.387 58.348C290.963 58.348 291.467 58.402 291.899 58.51C292.343 58.606 292.703 58.726 292.979 58.87V58.168C292.979 57.616 292.907 57.19 292.763 56.89C292.631 56.578 292.385 56.356 292.025 56.224C291.677 56.08 291.167 56.008 290.495 56.008C289.283 56.008 288.023 56.152 286.715 56.44V55.144C288.047 54.856 289.319 54.712 290.531 54.712C291.659 54.712 292.505 54.826 293.069 55.054C293.645 55.282 294.023 55.612 294.203 56.044C294.395 56.476 294.491 57.076 294.491 57.844V62.47L295.715 63.01ZM287.795 61.246C287.795 61.834 287.939 62.254 288.227 62.506C288.527 62.758 289.067 62.884 289.847 62.884C290.423 62.884 290.975 62.782 291.503 62.578C292.043 62.362 292.535 62.068 292.979 61.696V59.896C292.307 59.704 291.497 59.608 290.549 59.608C289.505 59.608 288.785 59.74 288.389 60.004C287.993 60.268 287.795 60.682 287.795 61.246ZM304.595 64.144C303.443 64.144 302.615 63.91 302.111 63.442C301.619 62.974 301.373 62.182 301.373 61.066V56.224H299.969V55.216L301.373 54.964L301.913 52.354H302.885V54.964L305.963 54.982V56.242L302.885 56.224V61.066C302.885 61.558 302.945 61.93 303.065 62.182C303.185 62.434 303.383 62.608 303.659 62.704C303.935 62.8 304.337 62.848 304.865 62.848C305.273 62.848 305.699 62.806 306.143 62.722V63.982C305.711 64.09 305.195 64.144 304.595 64.144ZM320.366 63.01V64H318.224L317.756 62.704C317.264 63.208 316.73 63.58 316.154 63.82C315.59 64.06 314.954 64.18 314.246 64.18C313.094 64.18 312.242 63.958 311.69 63.514C311.138 63.07 310.862 62.35 310.862 61.354C310.862 60.298 311.192 59.536 311.852 59.068C312.512 58.588 313.574 58.348 315.038 58.348C315.614 58.348 316.118 58.402 316.55 58.51C316.994 58.606 317.354 58.726 317.63 58.87V58.168C317.63 57.616 317.558 57.19 317.414 56.89C317.282 56.578 317.036 56.356 316.676 56.224C316.328 56.08 315.818 56.008 315.146 56.008C313.934 56.008 312.674 56.152 311.366 56.44V55.144C312.698 54.856 313.97 54.712 315.182 54.712C316.31 54.712 317.156 54.826 317.72 55.054C318.296 55.282 318.674 55.612 318.854 56.044C319.046 56.476 319.142 57.076 319.142 57.844V62.47L320.366 63.01ZM312.446 61.246C312.446 61.834 312.59 62.254 312.878 62.506C313.178 62.758 313.718 62.884 314.498 62.884C315.074 62.884 315.626 62.782 316.154 62.578C316.694 62.362 317.186 62.068 317.63 61.696V59.896C316.958 59.704 316.148 59.608 315.2 59.608C314.156 59.608 313.436 59.74 313.04 60.004C312.644 60.268 312.446 60.682 312.446 61.246ZM338.936 57.16C339.932 57.352 340.67 57.556 341.15 57.772C341.642 57.988 341.996 58.312 342.212 58.744C342.44 59.164 342.554 59.776 342.554 60.58C342.554 61.48 342.392 62.188 342.068 62.704C341.744 63.22 341.234 63.592 340.538 63.82C339.842 64.036 338.894 64.144 337.694 64.144C336.074 64.144 334.574 63.964 333.194 63.604V60.4H334.436L334.742 62.47C335.702 62.698 336.704 62.812 337.748 62.812C338.636 62.812 339.308 62.746 339.764 62.614C340.232 62.482 340.55 62.278 340.718 62.002C340.886 61.714 340.97 61.324 340.97 60.832C340.97 60.232 340.898 59.812 340.754 59.572C340.61 59.332 340.322 59.146 339.89 59.014C339.458 58.882 338.624 58.702 337.388 58.474L336.938 58.384C335.954 58.204 335.192 57.988 334.652 57.736C334.124 57.472 333.746 57.13 333.518 56.71C333.302 56.29 333.194 55.732 333.194 55.036C333.194 54.184 333.35 53.512 333.662 53.02C333.986 52.516 334.49 52.156 335.174 51.94C335.858 51.724 336.77 51.616 337.91 51.616C339.314 51.616 340.766 51.772 342.266 52.084V55.234H341.078L340.79 53.236C339.878 53.044 338.894 52.948 337.838 52.948C337.01 52.948 336.374 53.014 335.93 53.146C335.486 53.266 335.18 53.458 335.012 53.722C334.856 53.974 334.778 54.322 334.778 54.766C334.778 55.318 334.856 55.714 335.012 55.954C335.18 56.194 335.48 56.38 335.912 56.512C336.356 56.644 337.178 56.824 338.378 57.052L338.936 57.16ZM352.186 54.712C353.182 54.712 353.884 54.838 354.292 55.09C354.7 55.342 354.904 55.744 354.904 56.296C354.904 57.268 354.328 57.754 353.176 57.754L352.384 55.954C351.436 55.954 350.722 56.062 350.242 56.278C349.762 56.494 349.426 56.848 349.234 57.34C349.054 57.82 348.964 58.522 348.964 59.446C348.964 60.394 349.066 61.12 349.27 61.624C349.486 62.128 349.81 62.476 350.242 62.668C350.686 62.86 351.286 62.956 352.042 62.956C352.558 62.956 353.026 62.926 353.446 62.866C353.866 62.794 354.304 62.674 354.76 62.506V63.802C354.388 63.946 353.95 64.054 353.446 64.126C352.954 64.21 352.462 64.252 351.97 64.252C350.482 64.252 349.342 63.898 348.55 63.19C347.77 62.47 347.38 61.24 347.38 59.5C347.38 57.808 347.776 56.59 348.568 55.846C349.372 55.09 350.578 54.712 352.186 54.712ZM361.439 51.022C361.811 51.022 362.105 51.13 362.321 51.346C362.549 51.562 362.663 51.868 362.663 52.264C362.663 52.66 362.549 52.966 362.321 53.182C362.105 53.398 361.811 53.506 361.439 53.506C361.067 53.506 360.767 53.398 360.539 53.182C360.323 52.966 360.215 52.66 360.215 52.264C360.215 51.868 360.323 51.562 360.539 51.346C360.767 51.13 361.067 51.022 361.439 51.022ZM362.339 62.47L363.563 63.01V64H359.603V63.01L360.827 62.47V56.494L359.603 55.99V54.964H362.339V62.47ZM372.595 54.712C373.819 54.712 374.809 55.096 375.565 55.864C376.333 56.62 376.717 57.748 376.717 59.248V59.968H369.661C369.721 60.772 369.865 61.39 370.093 61.822C370.333 62.242 370.675 62.536 371.119 62.704C371.575 62.872 372.199 62.956 372.991 62.956C374.131 62.956 375.259 62.818 376.375 62.542V63.838C375.907 63.958 375.361 64.054 374.737 64.126C374.113 64.21 373.519 64.252 372.955 64.252C371.359 64.252 370.147 63.892 369.319 63.172C368.491 62.452 368.077 61.222 368.077 59.482C368.077 57.862 368.485 56.662 369.301 55.882C370.117 55.102 371.215 54.712 372.595 54.712ZM372.505 56.008C371.569 56.008 370.885 56.218 370.453 56.638C370.021 57.058 369.763 57.742 369.679 58.69H375.115C375.043 57.802 374.797 57.136 374.377 56.692C373.957 56.236 373.333 56.008 372.505 56.008ZM391.724 63.01V64H388.988V58.042C388.988 57.334 388.814 56.824 388.466 56.512C388.13 56.188 387.632 56.026 386.972 56.026C386.552 56.026 386.138 56.08 385.73 56.188C385.334 56.296 384.752 56.488 383.984 56.764V62.47L385.388 63.01V64H381.248V63.01L382.472 62.47V56.494L381.248 55.99V54.964H383.246L383.714 55.702C384.386 55.354 385.022 55.102 385.622 54.946C386.222 54.79 386.834 54.712 387.458 54.712C388.214 54.712 388.814 54.832 389.258 55.072C389.702 55.3 390.02 55.672 390.212 56.188C390.404 56.692 390.5 57.376 390.5 58.24V62.47L391.724 63.01ZM400.6 64.144C399.448 64.144 398.62 63.91 398.116 63.442C397.624 62.974 397.378 62.182 397.378 61.066V56.224H395.974V55.216L397.378 54.964L397.918 52.354H398.89V54.964L401.968 54.982V56.242L398.89 56.224V61.066C398.89 61.558 398.95 61.93 399.07 62.182C399.19 62.434 399.388 62.608 399.664 62.704C399.94 62.8 400.342 62.848 400.87 62.848C401.278 62.848 401.704 62.806 402.148 62.722V63.982C401.716 64.09 401.2 64.144 400.6 64.144ZM408.685 51.022C409.057 51.022 409.351 51.13 409.567 51.346C409.795 51.562 409.909 51.868 409.909 52.264C409.909 52.66 409.795 52.966 409.567 53.182C409.351 53.398 409.057 53.506 408.685 53.506C408.313 53.506 408.013 53.398 407.785 53.182C407.569 52.966 407.461 52.66 407.461 52.264C407.461 51.868 407.569 51.562 407.785 51.346C408.013 51.13 408.313 51.022 408.685 51.022ZM409.585 62.47L410.809 63.01V64H406.849V63.01L408.073 62.47V56.494L406.849 55.99V54.964H409.585V62.47ZM420.435 58.888C421.263 59.044 421.881 59.218 422.289 59.41C422.697 59.602 422.973 59.854 423.117 60.166C423.261 60.466 423.333 60.892 423.333 61.444C423.333 62.128 423.207 62.674 422.955 63.082C422.715 63.478 422.283 63.772 421.659 63.964C421.047 64.156 420.177 64.252 419.049 64.252C418.473 64.252 417.915 64.222 417.375 64.162C416.835 64.114 416.181 64.024 415.413 63.892V61.3H416.493L417.015 62.83C417.651 62.938 418.347 62.992 419.103 62.992C419.847 62.992 420.405 62.956 420.777 62.884C421.149 62.8 421.401 62.668 421.533 62.488C421.677 62.296 421.749 62.02 421.749 61.66C421.749 61.336 421.683 61.096 421.551 60.94C421.419 60.772 421.221 60.652 420.957 60.58C420.705 60.508 420.261 60.424 419.625 60.328L418.401 60.112C417.549 59.956 416.907 59.782 416.475 59.59C416.043 59.398 415.737 59.14 415.557 58.816C415.389 58.48 415.305 58.012 415.305 57.412C415.305 56.752 415.419 56.23 415.647 55.846C415.887 55.462 416.295 55.18 416.871 55C417.447 54.808 418.257 54.712 419.301 54.712C420.345 54.712 421.581 54.832 423.009 55.072V57.574H421.965L421.479 56.17C420.687 56.038 419.937 55.972 419.229 55.972C418.605 55.972 418.125 56.014 417.789 56.098C417.453 56.182 417.219 56.314 417.087 56.494C416.955 56.674 416.889 56.932 416.889 57.268C416.889 57.604 416.961 57.856 417.105 58.024C417.249 58.18 417.483 58.306 417.807 58.402C418.131 58.486 418.695 58.594 419.499 58.726C419.799 58.762 420.111 58.816 420.435 58.888ZM432.304 64.144C431.152 64.144 430.324 63.91 429.82 63.442C429.328 62.974 429.082 62.182 429.082 61.066V56.224H427.678V55.216L429.082 54.964L429.622 52.354H430.594V54.964L433.672 54.982V56.242L430.594 56.224V61.066C430.594 61.558 430.654 61.93 430.774 62.182C430.894 62.434 431.092 62.608 431.368 62.704C431.644 62.8 432.046 62.848 432.574 62.848C432.982 62.848 433.408 62.806 433.852 62.722V63.982C433.42 64.09 432.904 64.144 432.304 64.144ZM451.122 52.786L449.79 53.308V62.47L451.122 63.01V64H446.91V63.01L448.242 62.47V53.308L446.91 52.786V51.76H451.122V52.786ZM466.561 63.01V64H463.825V58.042C463.825 57.334 463.651 56.824 463.303 56.512C462.967 56.188 462.469 56.026 461.809 56.026C461.389 56.026 460.975 56.08 460.567 56.188C460.171 56.296 459.589 56.488 458.821 56.764V62.47L460.225 63.01V64H456.085V63.01L457.309 62.47V56.494L456.085 55.99V54.964H458.083L458.551 55.702C459.223 55.354 459.859 55.102 460.459 54.946C461.059 54.79 461.671 54.712 462.295 54.712C463.051 54.712 463.651 54.832 464.095 55.072C464.539 55.3 464.857 55.672 465.049 56.188C465.241 56.692 465.337 57.376 465.337 58.24V62.47L466.561 63.01ZM475.437 64.144C474.285 64.144 473.457 63.91 472.953 63.442C472.461 62.974 472.215 62.182 472.215 61.066V56.224H470.811V55.216L472.215 54.964L472.755 52.354H473.727V54.964L476.805 54.982V56.242L473.727 56.224V61.066C473.727 61.558 473.787 61.93 473.907 62.182C474.027 62.434 474.225 62.608 474.501 62.704C474.777 62.8 475.179 62.848 475.707 62.848C476.115 62.848 476.541 62.806 476.985 62.722V63.982C476.553 64.09 476.037 64.144 475.437 64.144ZM485.938 54.712C487.162 54.712 488.152 55.096 488.908 55.864C489.676 56.62 490.06 57.748 490.06 59.248V59.968H483.004C483.064 60.772 483.208 61.39 483.436 61.822C483.676 62.242 484.018 62.536 484.462 62.704C484.918 62.872 485.542 62.956 486.334 62.956C487.474 62.956 488.602 62.818 489.718 62.542V63.838C489.25 63.958 488.704 64.054 488.08 64.126C487.456 64.21 486.862 64.252 486.298 64.252C484.702 64.252 483.49 63.892 482.662 63.172C481.834 62.452 481.42 61.222 481.42 59.482C481.42 57.862 481.828 56.662 482.644 55.882C483.46 55.102 484.558 54.712 485.938 54.712ZM485.848 56.008C484.912 56.008 484.228 56.218 483.796 56.638C483.364 57.058 483.106 57.742 483.022 58.69H488.458C488.386 57.802 488.14 57.136 487.72 56.692C487.3 56.236 486.676 56.008 485.848 56.008ZM500.874 54.676C501.402 54.676 501.786 54.802 502.026 55.054C502.266 55.306 502.386 55.696 502.386 56.224C502.386 57.196 501.834 57.682 500.73 57.682L500.01 56.062C499.542 56.182 499.068 56.35 498.588 56.566C498.12 56.77 497.7 56.992 497.328 57.232V62.47L499.002 63.01V64H494.592V63.01L495.816 62.47V56.494L494.592 55.99V54.964H496.59L497.274 56.044C497.874 55.6 498.486 55.264 499.11 55.036C499.734 54.796 500.322 54.676 500.874 54.676ZM511.24 54.712C512.464 54.712 513.454 55.096 514.21 55.864C514.978 56.62 515.362 57.748 515.362 59.248V59.968H508.306C508.366 60.772 508.51 61.39 508.738 61.822C508.978 62.242 509.32 62.536 509.764 62.704C510.22 62.872 510.844 62.956 511.636 62.956C512.776 62.956 513.904 62.818 515.02 62.542V63.838C514.552 63.958 514.006 64.054 513.382 64.126C512.758 64.21 512.164 64.252 511.6 64.252C510.004 64.252 508.792 63.892 507.964 63.172C507.136 62.452 506.722 61.222 506.722 59.482C506.722 57.862 507.13 56.662 507.946 55.882C508.762 55.102 509.86 54.712 511.24 54.712ZM511.15 56.008C510.214 56.008 509.53 56.218 509.098 56.638C508.666 57.058 508.408 57.742 508.324 58.69H513.76C513.688 57.802 513.442 57.136 513.022 56.692C512.602 56.236 511.978 56.008 511.15 56.008ZM524.916 58.888C525.744 59.044 526.362 59.218 526.77 59.41C527.178 59.602 527.454 59.854 527.598 60.166C527.742 60.466 527.814 60.892 527.814 61.444C527.814 62.128 527.688 62.674 527.436 63.082C527.196 63.478 526.764 63.772 526.14 63.964C525.528 64.156 524.658 64.252 523.53 64.252C522.954 64.252 522.396 64.222 521.856 64.162C521.316 64.114 520.662 64.024 519.894 63.892V61.3H520.974L521.496 62.83C522.132 62.938 522.828 62.992 523.584 62.992C524.328 62.992 524.886 62.956 525.258 62.884C525.63 62.8 525.882 62.668 526.014 62.488C526.158 62.296 526.23 62.02 526.23 61.66C526.23 61.336 526.164 61.096 526.032 60.94C525.9 60.772 525.702 60.652 525.438 60.58C525.186 60.508 524.742 60.424 524.106 60.328L522.882 60.112C522.03 59.956 521.388 59.782 520.956 59.59C520.524 59.398 520.218 59.14 520.038 58.816C519.87 58.48 519.786 58.012 519.786 57.412C519.786 56.752 519.9 56.23 520.128 55.846C520.368 55.462 520.776 55.18 521.352 55C521.928 54.808 522.738 54.712 523.782 54.712C524.826 54.712 526.062 54.832 527.49 55.072V57.574H526.446L525.96 56.17C525.168 56.038 524.418 55.972 523.71 55.972C523.086 55.972 522.606 56.014 522.27 56.098C521.934 56.182 521.7 56.314 521.568 56.494C521.436 56.674 521.37 56.932 521.37 57.268C521.37 57.604 521.442 57.856 521.586 58.024C521.73 58.18 521.964 58.306 522.288 58.402C522.612 58.486 523.176 58.594 523.98 58.726C524.28 58.762 524.592 58.816 524.916 58.888ZM536.785 64.144C535.633 64.144 534.805 63.91 534.301 63.442C533.809 62.974 533.563 62.182 533.563 61.066V56.224H532.159V55.216L533.563 54.964L534.103 52.354H535.075V54.964L538.153 54.982V56.242L535.075 56.224V61.066C535.075 61.558 535.135 61.93 535.255 62.182C535.375 62.434 535.573 62.608 535.849 62.704C536.125 62.8 536.527 62.848 537.055 62.848C537.463 62.848 537.889 62.806 538.333 62.722V63.982C537.901 64.09 537.385 64.144 536.785 64.144ZM548.056 58.888C548.884 59.044 549.502 59.218 549.91 59.41C550.318 59.602 550.594 59.854 550.738 60.166C550.882 60.466 550.954 60.892 550.954 61.444C550.954 62.128 550.828 62.674 550.576 63.082C550.336 63.478 549.904 63.772 549.28 63.964C548.668 64.156 547.798 64.252 546.67 64.252C546.094 64.252 545.536 64.222 544.996 64.162C544.456 64.114 543.802 64.024 543.034 63.892V61.3H544.114L544.636 62.83C545.272 62.938 545.968 62.992 546.724 62.992C547.468 62.992 548.026 62.956 548.398 62.884C548.77 62.8 549.022 62.668 549.154 62.488C549.298 62.296 549.37 62.02 549.37 61.66C549.37 61.336 549.304 61.096 549.172 60.94C549.04 60.772 548.842 60.652 548.578 60.58C548.326 60.508 547.882 60.424 547.246 60.328L546.022 60.112C545.17 59.956 544.528 59.782 544.096 59.59C543.664 59.398 543.358 59.14 543.178 58.816C543.01 58.48 542.926 58.012 542.926 57.412C542.926 56.752 543.04 56.23 543.268 55.846C543.508 55.462 543.916 55.18 544.492 55C545.068 54.808 545.878 54.712 546.922 54.712C547.966 54.712 549.202 54.832 550.63 55.072V57.574H549.586L549.1 56.17C548.308 56.038 547.558 55.972 546.85 55.972C546.226 55.972 545.746 56.014 545.41 56.098C545.074 56.182 544.84 56.314 544.708 56.494C544.576 56.674 544.51 56.932 544.51 57.268C544.51 57.604 544.582 57.856 544.726 58.024C544.87 58.18 545.104 58.306 545.428 58.402C545.752 58.486 546.316 58.594 547.12 58.726C547.42 58.762 547.732 58.816 548.056 58.888Z" fill="black"/>
<path d="M99.136 29.68V31H93.616V29.68L95.296 29.032L94 25.504H86.92L85.6 29.056L87.304 29.68V31H82.192V29.68L83.848 28.936L89.32 14.488H92.008L97.48 28.912L99.136 29.68ZM93.376 23.8L90.472 15.928L87.544 23.8H93.376ZM123.782 29.68V31H120.926L120.302 29.272C119.63 29.944 118.91 30.44 118.142 30.76C117.39 31.08 116.518 31.24 115.526 31.24C114.438 31.24 113.542 31.056 112.838 30.688C112.15 30.304 111.63 29.664 111.278 28.768C110.926 27.856 110.75 26.608 110.75 25.024C110.75 22.768 111.182 21.136 112.046 20.128C112.91 19.12 114.142 18.616 115.742 18.616C116.478 18.616 117.198 18.72 117.902 18.928C118.606 19.136 119.35 19.472 120.134 19.936V16L118.502 15.328V13.96H122.15V28.96L123.782 29.68ZM112.862 25.216C112.862 26.32 112.966 27.184 113.174 27.808C113.398 28.432 113.734 28.872 114.182 29.128C114.63 29.368 115.214 29.488 115.934 29.488C117.422 29.488 118.822 28.968 120.134 27.928V21.352C119.126 20.984 118.358 20.728 117.83 20.584C117.318 20.44 116.782 20.368 116.222 20.368C115.022 20.368 114.158 20.768 113.63 21.568C113.118 22.352 112.862 23.568 112.862 25.216ZM138.735 13.696C139.231 13.696 139.623 13.84 139.911 14.128C140.215 14.416 140.367 14.824 140.367 15.352C140.367 15.88 140.215 16.288 139.911 16.576C139.623 16.864 139.231 17.008 138.735 17.008C138.239 17.008 137.839 16.864 137.535 16.576C137.247 16.288 137.103 15.88 137.103 15.352C137.103 14.824 137.247 14.416 137.535 14.128C137.839 13.84 138.239 13.696 138.735 13.696ZM139.935 28.96L141.567 29.68V31H136.287V29.68L137.919 28.96V20.992L136.287 20.32V18.952H139.935V28.96ZM159.753 31.192C158.217 31.192 157.113 30.88 156.441 30.256C155.785 29.632 155.457 28.576 155.457 27.088V20.632H153.585V19.288L155.457 18.952L156.177 15.472H157.473V18.952L161.577 18.976V20.656L157.473 20.632V27.088C157.473 27.744 157.553 28.24 157.713 28.576C157.873 28.912 158.137 29.144 158.505 29.272C158.873 29.4 159.409 29.464 160.113 29.464C160.657 29.464 161.225 29.408 161.817 29.296V30.976C161.241 31.12 160.553 31.192 159.753 31.192ZM188.39 18.952V20.296L186.422 20.968L181.118 32.8C180.718 33.712 180.27 34.416 179.774 34.912C179.294 35.424 178.678 35.792 177.926 36.016C177.19 36.256 176.23 36.376 175.046 36.376H174.566V34.6C175.174 34.648 175.758 34.672 176.318 34.672C176.926 34.672 177.406 34.592 177.758 34.432C178.126 34.272 178.486 33.936 178.838 33.424C179.206 32.928 179.646 32.128 180.158 31.024L175.55 20.968L173.582 20.296V18.952H179.702V20.296L177.758 20.944L181.214 28.696L184.622 20.944L182.678 20.296V18.952H188.39ZM212.748 29.68V31H209.892L209.268 29.272C208.612 29.944 207.9 30.44 207.132 30.76C206.38 31.08 205.532 31.24 204.588 31.24C203.052 31.24 201.916 30.944 201.18 30.352C200.444 29.76 200.076 28.8 200.076 27.472C200.076 26.064 200.516 25.048 201.396 24.424C202.276 23.784 203.692 23.464 205.644 23.464C206.412 23.464 207.084 23.536 207.66 23.68C208.252 23.808 208.732 23.968 209.1 24.16V23.224C209.1 22.488 209.004 21.92 208.812 21.52C208.636 21.104 208.308 20.808 207.828 20.632C207.364 20.44 206.684 20.344 205.788 20.344C204.172 20.344 202.492 20.536 200.748 20.92V19.192C202.524 18.808 204.22 18.616 205.836 18.616C207.34 18.616 208.468 18.768 209.22 19.072C209.988 19.376 210.492 19.816 210.732 20.392C210.988 20.968 211.116 21.768 211.116 22.792V28.96L212.748 29.68ZM202.188 27.328C202.188 28.112 202.38 28.672 202.764 29.008C203.164 29.344 203.884 29.512 204.924 29.512C205.692 29.512 206.428 29.376 207.132 29.104C207.852 28.816 208.508 28.424 209.1 27.928V25.528C208.204 25.272 207.124 25.144 205.86 25.144C204.468 25.144 203.508 25.32 202.98 25.672C202.452 26.024 202.188 26.576 202.188 27.328ZM257.199 14.68V16.048L255.663 16.744L250.359 24.64V28.96L252.375 29.68V31H246.279V29.68L248.295 28.96V24.64L243.015 16.744L241.455 16.048V14.68H247.071V16.048L245.391 16.744L249.495 22.984L253.599 16.744L251.943 16.048V14.68H257.199ZM281.387 29.632V31H278.723L278.099 30.016C277.171 30.48 276.307 30.816 275.507 31.024C274.723 31.232 273.923 31.336 273.107 31.336C272.083 31.336 271.275 31.184 270.683 30.88C270.107 30.56 269.691 30.064 269.435 29.392C269.179 28.704 269.051 27.784 269.051 26.632V20.992L267.419 20.272V18.952H271.067V26.896C271.067 27.84 271.291 28.528 271.739 28.96C272.203 29.376 272.875 29.584 273.755 29.584C274.315 29.584 274.859 29.512 275.387 29.368C275.931 29.224 276.715 28.968 277.739 28.6V20.944L276.107 20.272V18.952H279.755V28.96L281.387 29.632ZM306.934 29.68V31H304.078L303.454 29.272C302.782 29.944 302.062 30.44 301.294 30.76C300.542 31.08 299.67 31.24 298.678 31.24C297.59 31.24 296.694 31.056 295.99 30.688C295.302 30.304 294.782 29.664 294.43 28.768C294.078 27.856 293.902 26.608 293.902 25.024C293.902 22.768 294.334 21.136 295.198 20.128C296.062 19.12 297.294 18.616 298.894 18.616C299.63 18.616 300.35 18.72 301.054 18.928C301.758 19.136 302.502 19.472 303.286 19.936V16L301.654 15.328V13.96H305.302V28.96L306.934 29.68ZM296.014 25.216C296.014 26.32 296.118 27.184 296.326 27.808C296.55 28.432 296.886 28.872 297.334 29.128C297.782 29.368 298.366 29.488 299.086 29.488C300.574 29.488 301.974 28.968 303.286 27.928V21.352C302.278 20.984 301.51 20.728 300.982 20.584C300.47 20.44 299.934 20.368 299.374 20.368C298.174 20.368 297.31 20.768 296.782 21.568C296.27 22.352 296.014 23.568 296.014 25.216ZM333.406 29.68V31H329.758V23.056C329.758 22.112 329.526 21.432 329.062 21.016C328.614 20.584 327.95 20.368 327.07 20.368C326.51 20.368 325.958 20.44 325.414 20.584C324.886 20.728 324.11 20.984 323.086 21.352V28.96L324.718 29.68V31H319.438V29.68L321.07 28.96V16L319.438 15.328V13.96H323.086V19.792C323.902 19.376 324.678 19.08 325.414 18.904C326.166 18.712 326.934 18.616 327.718 18.616C328.726 18.616 329.526 18.776 330.118 19.096C330.71 19.4 331.134 19.896 331.39 20.584C331.646 21.256 331.774 22.168 331.774 23.32V28.96L333.406 29.68ZM358.608 29.68V31H355.752L355.128 29.272C354.472 29.944 353.76 30.44 352.992 30.76C352.24 31.08 351.392 31.24 350.448 31.24C348.912 31.24 347.776 30.944 347.04 30.352C346.304 29.76 345.936 28.8 345.936 27.472C345.936 26.064 346.376 25.048 347.256 24.424C348.136 23.784 349.552 23.464 351.504 23.464C352.272 23.464 352.944 23.536 353.52 23.68C354.112 23.808 354.592 23.968 354.96 24.16V23.224C354.96 22.488 354.864 21.92 354.672 21.52C354.496 21.104 354.168 20.808 353.688 20.632C353.224 20.44 352.544 20.344 351.648 20.344C350.032 20.344 348.352 20.536 346.608 20.92V19.192C348.384 18.808 350.08 18.616 351.696 18.616C353.2 18.616 354.328 18.768 355.08 19.072C355.848 19.376 356.352 19.816 356.592 20.392C356.848 20.968 356.976 21.768 356.976 22.792V28.96L358.608 29.68ZM348.048 27.328C348.048 28.112 348.24 28.672 348.624 29.008C349.024 29.344 349.744 29.512 350.784 29.512C351.552 29.512 352.288 29.376 352.992 29.104C353.712 28.816 354.368 28.424 354.96 27.928V25.528C354.064 25.272 352.984 25.144 351.72 25.144C350.328 25.144 349.368 25.32 348.84 25.672C348.312 26.024 348.048 26.576 348.048 27.328ZM392.463 24.52V28.936L394.239 29.68V31H388.623V29.68L390.399 28.936V16.744L388.623 16.048V14.68H398.175C399.727 14.68 400.903 15.096 401.703 15.928C402.503 16.76 402.903 17.984 402.903 19.6C402.903 21.216 402.479 22.44 401.631 23.272C400.799 24.104 399.575 24.52 397.959 24.52H392.463ZM400.743 19.6C400.743 18.48 400.519 17.672 400.071 17.176C399.639 16.664 398.943 16.408 397.983 16.408H392.463V22.792H397.743C398.815 22.792 399.583 22.544 400.047 22.048C400.511 21.552 400.743 20.736 400.743 19.6ZM420.832 18.616C422.464 18.616 423.784 19.128 424.792 20.152C425.816 21.16 426.328 22.664 426.328 24.664V25.624H416.92C417 26.696 417.192 27.52 417.496 28.096C417.816 28.656 418.272 29.048 418.864 29.272C419.472 29.496 420.304 29.608 421.36 29.608C422.88 29.608 424.384 29.424 425.872 29.056V30.784C425.248 30.944 424.52 31.072 423.688 31.168C422.856 31.28 422.064 31.336 421.312 31.336C419.184 31.336 417.568 30.856 416.464 29.896C415.36 28.936 414.808 27.296 414.808 24.976C414.808 22.816 415.352 21.216 416.44 20.176C417.528 19.136 418.992 18.616 420.832 18.616ZM420.712 20.344C419.464 20.344 418.552 20.624 417.976 21.184C417.4 21.744 417.056 22.656 416.944 23.92H424.192C424.096 22.736 423.768 21.848 423.208 21.256C422.648 20.648 421.816 20.344 420.712 20.344ZM447.107 18.568C447.811 18.568 448.323 18.736 448.643 19.072C448.963 19.408 449.123 19.928 449.123 20.632C449.123 21.928 448.387 22.576 446.915 22.576L445.955 20.416C445.331 20.576 444.699 20.8 444.059 21.088C443.435 21.36 442.875 21.656 442.379 21.976V28.96L444.611 29.68V31H438.731V29.68L440.363 28.96V20.992L438.731 20.32V18.952H441.395L442.307 20.392C443.107 19.8 443.923 19.352 444.755 19.048C445.587 18.728 446.371 18.568 447.107 18.568ZM474.416 29.68V31H471.56L470.936 29.272C470.264 29.944 469.544 30.44 468.776 30.76C468.024 31.08 467.152 31.24 466.16 31.24C465.072 31.24 464.176 31.056 463.472 30.688C462.784 30.304 462.264 29.664 461.912 28.768C461.56 27.856 461.384 26.608 461.384 25.024C461.384 22.768 461.816 21.136 462.68 20.128C463.544 19.12 464.776 18.616 466.376 18.616C467.112 18.616 467.832 18.72 468.536 18.928C469.24 19.136 469.984 19.472 470.768 19.936V16L469.136 15.328V13.96H472.784V28.96L474.416 29.68ZM463.496 25.216C463.496 26.32 463.6 27.184 463.808 27.808C464.032 28.432 464.368 28.872 464.816 29.128C465.264 29.368 465.848 29.488 466.568 29.488C468.056 29.488 469.456 28.968 470.768 27.928V21.352C469.76 20.984 468.992 20.728 468.464 20.584C467.952 20.44 467.416 20.368 466.856 20.368C465.656 20.368 464.792 20.768 464.264 21.568C463.752 22.352 463.496 23.568 463.496 25.216ZM499.617 29.68V31H496.761L496.137 29.272C495.481 29.944 494.769 30.44 494.001 30.76C493.249 31.08 492.401 31.24 491.457 31.24C489.921 31.24 488.785 30.944 488.049 30.352C487.313 29.76 486.945 28.8 486.945 27.472C486.945 26.064 487.385 25.048 488.265 24.424C489.145 23.784 490.561 23.464 492.513 23.464C493.281 23.464 493.953 23.536 494.529 23.68C495.121 23.808 495.601 23.968 495.969 24.16V23.224C495.969 22.488 495.873 21.92 495.681 21.52C495.505 21.104 495.177 20.808 494.697 20.632C494.233 20.44 493.553 20.344 492.657 20.344C491.041 20.344 489.361 20.536 487.617 20.92V19.192C489.393 18.808 491.089 18.616 492.705 18.616C494.209 18.616 495.337 18.768 496.089 19.072C496.857 19.376 497.361 19.816 497.601 20.392C497.857 20.968 497.985 21.768 497.985 22.792V28.96L499.617 29.68ZM489.057 27.328C489.057 28.112 489.249 28.672 489.633 29.008C490.033 29.344 490.753 29.512 491.793 29.512C492.561 29.512 493.297 29.376 494.001 29.104C494.721 28.816 495.377 28.424 495.969 27.928V25.528C495.073 25.272 493.993 25.144 492.729 25.144C491.337 25.144 490.377 25.32 489.849 25.672C489.321 26.024 489.057 26.576 489.057 27.328ZM526.097 29.68V31H522.449V23.056C522.449 22.112 522.217 21.432 521.753 21.016C521.305 20.584 520.641 20.368 519.761 20.368C519.201 20.368 518.649 20.44 518.105 20.584C517.577 20.728 516.801 20.984 515.777 21.352V28.96L517.649 29.68V31H512.129V29.68L513.761 28.96V20.992L512.129 20.32V18.952H514.793L515.417 19.936C516.313 19.472 517.161 19.136 517.961 18.928C518.761 18.72 519.577 18.616 520.409 18.616C521.417 18.616 522.217 18.776 522.809 19.096C523.401 19.4 523.825 19.896 524.081 20.584C524.337 21.256 524.465 22.168 524.465 23.32V28.96L526.097 29.68ZM551.299 29.68V31H548.443L547.819 29.272C547.163 29.944 546.451 30.44 545.683 30.76C544.931 31.08 544.083 31.24 543.139 31.24C541.603 31.24 540.467 30.944 539.731 30.352C538.995 29.76 538.627 28.8 538.627 27.472C538.627 26.064 539.067 25.048 539.947 24.424C540.827 23.784 542.243 23.464 544.195 23.464C544.963 23.464 545.635 23.536 546.211 23.68C546.803 23.808 547.283 23.968 547.651 24.16V23.224C547.651 22.488 547.555 21.92 547.363 21.52C547.187 21.104 546.859 20.808 546.379 20.632C545.915 20.44 545.235 20.344 544.339 20.344C542.723 20.344 541.043 20.536 539.299 20.92V19.192C541.075 18.808 542.771 18.616 544.387 18.616C545.891 18.616 547.019 18.768 547.771 19.072C548.539 19.376 549.043 19.816 549.283 20.392C549.539 20.968 549.667 21.768 549.667 22.792V28.96L551.299 29.68ZM540.739 27.328C540.739 28.112 540.931 28.672 541.315 29.008C541.715 29.344 542.435 29.512 543.475 29.512C544.243 29.512 544.979 29.376 545.683 29.104C546.403 28.816 547.059 28.424 547.651 27.928V25.528C546.755 25.272 545.675 25.144 544.411 25.144C543.019 25.144 542.059 25.32 541.531 25.672C541.003 26.024 540.739 26.576 540.739 27.328Z" fill="black"/>
</g>
<defs>
<filter id="filter0_d_4_45" x="0" y="5" width="555.299" height="75" filterUnits="userSpaceOnUse" color-interpolation-filters="sRGB">
<feFlood flood-opacity="0" result="BackgroundImageFix"/>
<feColorMatrix in="SourceAlpha" type="matrix" values="0 0 0 0 0 0 0 0 0 0 0 0 0 0 0 0 0 0 127 0" result="hardAlpha"/>
<feOffset dy="4"/>
<feGaussianBlur stdDeviation="2"/>
<feComposite in2="hardAlpha" operator="out"/>
<feColorMatrix type="matrix" values="0 0 0 0 1 0 0 0 0 1 0 0 0 0 1 0 0 0 0.25 0"/>
<feBlend mode="normal" in2="BackgroundImageFix" result="effect1_dropShadow_4_45"/>
<feBlend mode="normal" in="SourceGraphic" in2="effect1_dropShadow_4_45" result="shape"/>
</filter>
</defs>
</svg>
