<svg width="348" height="82" viewBox="0 0 348 82" fill="none" xmlns="http://www.w3.org/2000/svg">
<circle cx="33.5" cy="38.5" r="32" stroke="black" stroke-width="3"/>
<path d="M50.272 50.36V53H39.232V50.36L42.592 49.064L40 42.008H25.84L23.2 49.112L26.608 50.36V53H16.384V50.36L19.696 48.872L30.64 19.976H36.016L46.96 48.824L50.272 50.36ZM38.752 38.6L32.944 22.856L27.088 38.6H38.752Z" fill="black"/>
<path d="M85.452 51.76C87.048 51.76 88.362 52.222 89.394 53.146C90.426 54.07 90.942 55.636 90.942 57.844C90.942 60.088 90.426 61.678 89.394 62.614C88.362 63.538 87.048 64 85.452 64H78.99V63.01L80.61 62.452V53.308L78.99 52.786V51.76H85.452ZM82.158 53.056V62.704H85.074C85.974 62.704 86.73 62.572 87.342 62.308C87.954 62.032 88.434 61.54 88.782 60.832C89.142 60.112 89.322 59.116 89.322 57.844C89.322 56.596 89.142 55.624 88.782 54.928C88.434 54.22 87.954 53.734 87.342 53.47C86.73 53.194 85.974 53.056 85.074 53.056H82.158ZM105.193 63.01V64H103.051L102.583 62.704C102.091 63.208 101.557 63.58 100.981 63.82C100.417 64.06 99.7814 64.18 99.0734 64.18C97.9214 64.18 97.0694 63.958 96.5174 63.514C95.9654 63.07 95.6894 62.35 95.6894 61.354C95.6894 60.298 96.0194 59.536 96.6794 59.068C97.3394 58.588 98.4014 58.348 99.8654 58.348C100.441 58.348 100.945 58.402 101.377 58.51C101.821 58.606 102.181 58.726 102.457 58.87V58.168C102.457 57.616 102.385 57.19 102.241 56.89C102.109 56.578 101.863 56.356 101.503 56.224C101.155 56.08 100.645 56.008 99.9734 56.008C98.7614 56.008 97.5014 56.152 96.1934 56.44V55.144C97.5254 54.856 98.7974 54.712 100.009 54.712C101.137 54.712 101.983 54.826 102.547 55.054C103.123 55.282 103.501 55.612 103.681 56.044C103.873 56.476 103.969 57.076 103.969 57.844V62.47L105.193 63.01ZM97.2734 61.246C97.2734 61.834 97.4174 62.254 97.7054 62.506C98.0054 62.758 98.5454 62.884 99.3254 62.884C99.9014 62.884 100.453 62.782 100.981 62.578C101.521 62.362 102.013 62.068 102.457 61.696V59.896C101.785 59.704 100.975 59.608 100.027 59.608C98.9834 59.608 98.2634 59.74 97.8674 60.004C97.4714 60.268 97.2734 60.682 97.2734 61.246ZM114.074 64.144C112.922 64.144 112.094 63.91 111.59 63.442C111.098 62.974 110.852 62.182 110.852 61.066V56.224H109.448V55.216L110.852 54.964L111.392 52.354H112.364V54.964L115.442 54.982V56.242L112.364 56.224V61.066C112.364 61.558 112.424 61.93 112.544 62.182C112.664 62.434 112.862 62.608 113.138 62.704C113.414 62.8 113.816 62.848 114.344 62.848C114.752 62.848 115.178 62.806 115.622 62.722V63.982C115.19 64.09 114.674 64.144 114.074 64.144ZM129.845 63.01V64H127.703L127.235 62.704C126.743 63.208 126.209 63.58 125.633 63.82C125.069 64.06 124.433 64.18 123.725 64.18C122.573 64.18 121.721 63.958 121.169 63.514C120.617 63.07 120.341 62.35 120.341 61.354C120.341 60.298 120.671 59.536 121.331 59.068C121.991 58.588 123.053 58.348 124.517 58.348C125.093 58.348 125.597 58.402 126.029 58.51C126.473 58.606 126.833 58.726 127.109 58.87V58.168C127.109 57.616 127.037 57.19 126.893 56.89C126.761 56.578 126.515 56.356 126.155 56.224C125.807 56.08 125.297 56.008 124.625 56.008C123.413 56.008 122.153 56.152 120.845 56.44V55.144C122.177 54.856 123.449 54.712 124.661 54.712C125.789 54.712 126.635 54.826 127.199 55.054C127.775 55.282 128.153 55.612 128.333 56.044C128.525 56.476 128.621 57.076 128.621 57.844V62.47L129.845 63.01ZM121.925 61.246C121.925 61.834 122.069 62.254 122.357 62.506C122.657 62.758 123.197 62.884 123.977 62.884C124.553 62.884 125.105 62.782 125.633 62.578C126.173 62.362 126.665 62.068 127.109 61.696V59.896C126.437 59.704 125.627 59.608 124.679 59.608C123.635 59.608 122.915 59.74 122.519 60.004C122.123 60.268 121.925 60.682 121.925 61.246ZM154.415 63.01V64H150.275V63.01L151.535 62.524L150.562 59.878H145.253L144.263 62.542L145.541 63.01V64H141.707V63.01L142.949 62.452L147.053 51.616H149.069L153.173 62.434L154.415 63.01ZM150.095 58.6L147.917 52.696L145.721 58.6H150.095ZM169.007 63.01V64H166.271V58.042C166.271 57.334 166.097 56.824 165.749 56.512C165.413 56.188 164.915 56.026 164.255 56.026C163.835 56.026 163.421 56.08 163.013 56.188C162.617 56.296 162.035 56.488 161.267 56.764V62.47L162.671 63.01V64H158.531V63.01L159.755 62.47V56.494L158.531 55.99V54.964H160.529L160.997 55.702C161.669 55.354 162.305 55.102 162.905 54.946C163.505 54.79 164.117 54.712 164.741 54.712C165.497 54.712 166.097 54.832 166.541 55.072C166.985 55.3 167.303 55.672 167.495 56.188C167.687 56.692 167.783 57.376 167.783 58.24V62.47L169.007 63.01ZM183.138 63.01V64H180.996L180.528 62.704C180.036 63.208 179.502 63.58 178.926 63.82C178.362 64.06 177.726 64.18 177.018 64.18C175.866 64.18 175.014 63.958 174.462 63.514C173.91 63.07 173.634 62.35 173.634 61.354C173.634 60.298 173.964 59.536 174.624 59.068C175.284 58.588 176.346 58.348 177.81 58.348C178.386 58.348 178.89 58.402 179.322 58.51C179.766 58.606 180.126 58.726 180.402 58.87V58.168C180.402 57.616 180.33 57.19 180.186 56.89C180.054 56.578 179.808 56.356 179.448 56.224C179.1 56.08 178.59 56.008 177.918 56.008C176.706 56.008 175.446 56.152 174.138 56.44V55.144C175.47 54.856 176.742 54.712 177.954 54.712C179.082 54.712 179.928 54.826 180.492 55.054C181.068 55.282 181.446 55.612 181.626 56.044C181.818 56.476 181.914 57.076 181.914 57.844V62.47L183.138 63.01ZM175.218 61.246C175.218 61.834 175.362 62.254 175.65 62.506C175.95 62.758 176.49 62.884 177.27 62.884C177.846 62.884 178.398 62.782 178.926 62.578C179.466 62.362 179.958 62.068 180.402 61.696V59.896C179.73 59.704 178.92 59.608 177.972 59.608C176.928 59.608 176.208 59.74 175.812 60.004C175.416 60.268 175.218 60.682 175.218 61.246ZM190.032 62.47L191.256 63.01V64H187.296V63.01L188.52 62.47V52.75L187.296 52.246V51.22H190.032V62.47ZM206.318 54.964V55.972L204.842 56.476L200.864 65.35C200.564 66.034 200.228 66.562 199.856 66.934C199.496 67.318 199.034 67.594 198.47 67.762C197.918 67.942 197.198 68.032 196.31 68.032H195.95V66.7C196.406 66.736 196.844 66.754 197.264 66.754C197.72 66.754 198.08 66.694 198.344 66.574C198.62 66.454 198.89 66.202 199.154 65.818C199.43 65.446 199.76 64.846 200.144 64.018L196.688 56.476L195.212 55.972V54.964H199.802V55.972L198.344 56.458L200.936 62.272L203.492 56.458L202.034 55.972V54.964H206.318ZM215.493 58.888C216.321 59.044 216.939 59.218 217.347 59.41C217.755 59.602 218.031 59.854 218.175 60.166C218.319 60.466 218.391 60.892 218.391 61.444C218.391 62.128 218.265 62.674 218.013 63.082C217.773 63.478 217.341 63.772 216.717 63.964C216.105 64.156 215.235 64.252 214.107 64.252C213.531 64.252 212.973 64.222 212.433 64.162C211.893 64.114 211.239 64.024 210.471 63.892V61.3H211.551L212.073 62.83C212.709 62.938 213.405 62.992 214.161 62.992C214.905 62.992 215.463 62.956 215.835 62.884C216.207 62.8 216.459 62.668 216.591 62.488C216.735 62.296 216.807 62.02 216.807 61.66C216.807 61.336 216.741 61.096 216.609 60.94C216.477 60.772 216.279 60.652 216.015 60.58C215.763 60.508 215.319 60.424 214.683 60.328L213.459 60.112C212.607 59.956 211.965 59.782 211.533 59.59C211.101 59.398 210.795 59.14 210.615 58.816C210.447 58.48 210.363 58.012 210.363 57.412C210.363 56.752 210.477 56.23 210.705 55.846C210.945 55.462 211.353 55.18 211.929 55C212.505 54.808 213.315 54.712 214.359 54.712C215.403 54.712 216.639 54.832 218.067 55.072V57.574H217.023L216.537 56.17C215.745 56.038 214.995 55.972 214.287 55.972C213.663 55.972 213.183 56.014 212.847 56.098C212.511 56.182 212.277 56.314 212.145 56.494C212.013 56.674 211.947 56.932 211.947 57.268C211.947 57.604 212.019 57.856 212.163 58.024C212.307 58.18 212.541 58.306 212.865 58.402C213.189 58.486 213.753 58.594 214.557 58.726C214.857 58.762 215.169 58.816 215.493 58.888ZM227.361 64.144C226.209 64.144 225.381 63.91 224.877 63.442C224.385 62.974 224.139 62.182 224.139 61.066V56.224H222.735V55.216L224.139 54.964L224.679 52.354H225.651V54.964L228.729 54.982V56.242L225.651 56.224V61.066C225.651 61.558 225.711 61.93 225.831 62.182C225.951 62.434 226.149 62.608 226.425 62.704C226.701 62.8 227.103 62.848 227.631 62.848C228.039 62.848 228.465 62.806 228.909 62.722V63.982C228.477 64.09 227.961 64.144 227.361 64.144ZM246.179 52.786L244.847 53.308V62.47L246.179 63.01V64H241.967V63.01L243.299 62.47V53.308L241.967 52.786V51.76H246.179V52.786ZM261.619 63.01V64H258.883V58.042C258.883 57.334 258.709 56.824 258.361 56.512C258.025 56.188 257.527 56.026 256.867 56.026C256.447 56.026 256.033 56.08 255.625 56.188C255.229 56.296 254.647 56.488 253.879 56.764V62.47L255.283 63.01V64H251.143V63.01L252.367 62.47V56.494L251.143 55.99V54.964H253.141L253.609 55.702C254.281 55.354 254.917 55.102 255.517 54.946C256.117 54.79 256.729 54.712 257.353 54.712C258.109 54.712 258.709 54.832 259.153 55.072C259.597 55.3 259.915 55.672 260.107 56.188C260.299 56.692 260.395 57.376 260.395 58.24V62.47L261.619 63.01ZM270.494 64.144C269.342 64.144 268.514 63.91 268.01 63.442C267.518 62.974 267.272 62.182 267.272 61.066V56.224H265.868V55.216L267.272 54.964L267.812 52.354H268.784V54.964L271.862 54.982V56.242L268.784 56.224V61.066C268.784 61.558 268.844 61.93 268.964 62.182C269.084 62.434 269.282 62.608 269.558 62.704C269.834 62.8 270.236 62.848 270.764 62.848C271.172 62.848 271.598 62.806 272.042 62.722V63.982C271.61 64.09 271.094 64.144 270.494 64.144ZM280.996 54.712C282.22 54.712 283.21 55.096 283.966 55.864C284.734 56.62 285.118 57.748 285.118 59.248V59.968H278.062C278.122 60.772 278.266 61.39 278.494 61.822C278.734 62.242 279.076 62.536 279.52 62.704C279.976 62.872 280.6 62.956 281.392 62.956C282.532 62.956 283.66 62.818 284.776 62.542V63.838C284.308 63.958 283.762 64.054 283.138 64.126C282.514 64.21 281.92 64.252 281.356 64.252C279.76 64.252 278.548 63.892 277.72 63.172C276.892 62.452 276.478 61.222 276.478 59.482C276.478 57.862 276.886 56.662 277.702 55.882C278.518 55.102 279.616 54.712 280.996 54.712ZM280.906 56.008C279.97 56.008 279.286 56.218 278.854 56.638C278.422 57.058 278.164 57.742 278.08 58.69H283.516C283.444 57.802 283.198 57.136 282.778 56.692C282.358 56.236 281.734 56.008 280.906 56.008ZM295.931 54.676C296.459 54.676 296.843 54.802 297.083 55.054C297.323 55.306 297.443 55.696 297.443 56.224C297.443 57.196 296.891 57.682 295.787 57.682L295.067 56.062C294.599 56.182 294.125 56.35 293.645 56.566C293.177 56.77 292.757 56.992 292.385 57.232V62.47L294.059 63.01V64H289.649V63.01L290.873 62.47V56.494L289.649 55.99V54.964H291.647L292.331 56.044C292.931 55.6 293.543 55.264 294.167 55.036C294.791 54.796 295.379 54.676 295.931 54.676ZM306.298 54.712C307.522 54.712 308.512 55.096 309.268 55.864C310.036 56.62 310.42 57.748 310.42 59.248V59.968H303.364C303.424 60.772 303.568 61.39 303.796 61.822C304.036 62.242 304.378 62.536 304.822 62.704C305.278 62.872 305.902 62.956 306.694 62.956C307.834 62.956 308.962 62.818 310.078 62.542V63.838C309.61 63.958 309.064 64.054 308.44 64.126C307.816 64.21 307.222 64.252 306.658 64.252C305.062 64.252 303.85 63.892 303.022 63.172C302.194 62.452 301.78 61.222 301.78 59.482C301.78 57.862 302.188 56.662 303.004 55.882C303.82 55.102 304.918 54.712 306.298 54.712ZM306.208 56.008C305.272 56.008 304.588 56.218 304.156 56.638C303.724 57.058 303.466 57.742 303.382 58.69H308.818C308.746 57.802 308.5 57.136 308.08 56.692C307.66 56.236 307.036 56.008 306.208 56.008ZM319.973 58.888C320.801 59.044 321.419 59.218 321.827 59.41C322.235 59.602 322.511 59.854 322.655 60.166C322.799 60.466 322.871 60.892 322.871 61.444C322.871 62.128 322.745 62.674 322.493 63.082C322.253 63.478 321.821 63.772 321.197 63.964C320.585 64.156 319.715 64.252 318.587 64.252C318.011 64.252 317.453 64.222 316.913 64.162C316.373 64.114 315.719 64.024 314.951 63.892V61.3H316.031L316.553 62.83C317.189 62.938 317.885 62.992 318.641 62.992C319.385 62.992 319.943 62.956 320.315 62.884C320.687 62.8 320.939 62.668 321.071 62.488C321.215 62.296 321.287 62.02 321.287 61.66C321.287 61.336 321.221 61.096 321.089 60.94C320.957 60.772 320.759 60.652 320.495 60.58C320.243 60.508 319.799 60.424 319.163 60.328L317.939 60.112C317.087 59.956 316.445 59.782 316.013 59.59C315.581 59.398 315.275 59.14 315.095 58.816C314.927 58.48 314.843 58.012 314.843 57.412C314.843 56.752 314.957 56.23 315.185 55.846C315.425 55.462 315.833 55.18 316.409 55C316.985 54.808 317.795 54.712 318.839 54.712C319.883 54.712 321.119 54.832 322.547 55.072V57.574H321.503L321.017 56.17C320.225 56.038 319.475 55.972 318.767 55.972C318.143 55.972 317.663 56.014 317.327 56.098C316.991 56.182 316.757 56.314 316.625 56.494C316.493 56.674 316.427 56.932 316.427 57.268C316.427 57.604 316.499 57.856 316.643 58.024C316.787 58.18 317.021 58.306 317.345 58.402C317.669 58.486 318.233 58.594 319.037 58.726C319.337 58.762 319.649 58.816 319.973 58.888ZM331.842 64.144C330.69 64.144 329.862 63.91 329.358 63.442C328.866 62.974 328.62 62.182 328.62 61.066V56.224H327.216V55.216L328.62 54.964L329.16 52.354H330.132V54.964L333.21 54.982V56.242L330.132 56.224V61.066C330.132 61.558 330.192 61.93 330.312 62.182C330.432 62.434 330.63 62.608 330.906 62.704C331.182 62.8 331.584 62.848 332.112 62.848C332.52 62.848 332.946 62.806 333.39 62.722V63.982C332.958 64.09 332.442 64.144 331.842 64.144ZM343.113 58.888C343.941 59.044 344.559 59.218 344.967 59.41C345.375 59.602 345.651 59.854 345.795 60.166C345.939 60.466 346.011 60.892 346.011 61.444C346.011 62.128 345.885 62.674 345.633 63.082C345.393 63.478 344.961 63.772 344.337 63.964C343.725 64.156 342.855 64.252 341.727 64.252C341.151 64.252 340.593 64.222 340.053 64.162C339.513 64.114 338.859 64.024 338.091 63.892V61.3H339.171L339.693 62.83C340.329 62.938 341.025 62.992 341.781 62.992C342.525 62.992 343.083 62.956 343.455 62.884C343.827 62.8 344.079 62.668 344.211 62.488C344.355 62.296 344.427 62.02 344.427 61.66C344.427 61.336 344.361 61.096 344.229 60.94C344.097 60.772 343.899 60.652 343.635 60.58C343.383 60.508 342.939 60.424 342.303 60.328L341.079 60.112C340.227 59.956 339.585 59.782 339.153 59.59C338.721 59.398 338.415 59.14 338.235 58.816C338.067 58.48 337.983 58.012 337.983 57.412C337.983 56.752 338.097 56.23 338.325 55.846C338.565 55.462 338.973 55.18 339.549 55C340.125 54.808 340.935 54.712 341.979 54.712C343.023 54.712 344.259 54.832 345.687 55.072V57.574H344.643L344.157 56.17C343.365 56.038 342.615 55.972 341.907 55.972C341.283 55.972 340.803 56.014 340.467 56.098C340.131 56.182 339.897 56.314 339.765 56.494C339.633 56.674 339.567 56.932 339.567 57.268C339.567 57.604 339.639 57.856 339.783 58.024C339.927 58.18 340.161 58.306 340.485 58.402C340.809 58.486 341.373 58.594 342.177 58.726C342.477 58.762 342.789 58.816 343.113 58.888Z" fill="black"/>
<path d="M95.136 29.68V31H89.616V29.68L91.296 29.032L90 25.504H82.92L81.6 29.056L83.304 29.68V31H78.192V29.68L79.848 28.936L85.32 14.488H88.008L93.48 28.912L95.136 29.68ZM89.376 23.8L86.472 15.928L83.544 23.8H89.376ZM109.222 29.68V31H106.366L105.742 29.272C105.07 29.944 104.35 30.44 103.582 30.76C102.83 31.08 101.958 31.24 100.966 31.24C99.8779 31.24 98.9819 31.056 98.2779 30.688C97.5899 30.304 97.0699 29.664 96.7179 28.768C96.3659 27.856 96.1899 26.608 96.1899 25.024C96.1899 22.768 96.6219 21.136 97.4859 20.128C98.3499 19.12 99.5819 18.616 101.182 18.616C101.918 18.616 102.638 18.72 103.342 18.928C104.046 19.136 104.79 19.472 105.574 19.936V16L103.942 15.328V13.96H107.59V28.96L109.222 29.68ZM98.3019 25.216C98.3019 26.32 98.4059 27.184 98.6139 27.808C98.8379 28.432 99.1739 28.872 99.6219 29.128C100.07 29.368 100.654 29.488 101.374 29.488C102.862 29.488 104.262 28.968 105.574 27.928V21.352C104.566 20.984 103.798 20.728 103.27 20.584C102.758 20.44 102.222 20.368 101.662 20.368C100.462 20.368 99.5979 20.768 99.0699 21.568C98.5579 22.352 98.3019 23.568 98.3019 25.216ZM113.615 13.696C114.111 13.696 114.503 13.84 114.791 14.128C115.095 14.416 115.247 14.824 115.247 15.352C115.247 15.88 115.095 16.288 114.791 16.576C114.503 16.864 114.111 17.008 113.615 17.008C113.119 17.008 112.719 16.864 112.415 16.576C112.127 16.288 111.983 15.88 111.983 15.352C111.983 14.824 112.127 14.416 112.415 14.128C112.719 13.84 113.119 13.696 113.615 13.696ZM114.815 28.96L116.447 29.68V31H111.167V29.68L112.799 28.96V20.992L111.167 20.32V18.952H114.815V28.96ZM124.073 31.192C122.537 31.192 121.433 30.88 120.761 30.256C120.105 29.632 119.777 28.576 119.777 27.088V20.632H117.905V19.288L119.777 18.952L120.497 15.472H121.793V18.952L125.897 18.976V20.656L121.793 20.632V27.088C121.793 27.744 121.873 28.24 122.033 28.576C122.193 28.912 122.457 29.144 122.825 29.272C123.193 29.4 123.729 29.464 124.433 29.464C124.977 29.464 125.545 29.408 126.137 29.296V30.976C125.561 31.12 124.873 31.192 124.073 31.192ZM142.15 18.952V20.296L140.182 20.968L134.878 32.8C134.478 33.712 134.03 34.416 133.534 34.912C133.054 35.424 132.438 35.792 131.686 36.016C130.95 36.256 129.99 36.376 128.806 36.376H128.326V34.6C128.934 34.648 129.518 34.672 130.078 34.672C130.686 34.672 131.166 34.592 131.518 34.432C131.886 34.272 132.246 33.936 132.598 33.424C132.966 32.928 133.406 32.128 133.918 31.024L129.31 20.968L127.342 20.296V18.952H133.462V20.296L131.518 20.944L134.974 28.696L138.382 20.944L136.438 20.296V18.952H142.15ZM155.948 29.68V31H153.092L152.468 29.272C151.812 29.944 151.1 30.44 150.332 30.76C149.58 31.08 148.732 31.24 147.788 31.24C146.252 31.24 145.116 30.944 144.38 30.352C143.644 29.76 143.276 28.8 143.276 27.472C143.276 26.064 143.716 25.048 144.596 24.424C145.476 23.784 146.892 23.464 148.844 23.464C149.612 23.464 150.284 23.536 150.86 23.68C151.452 23.808 151.932 23.968 152.3 24.16V23.224C152.3 22.488 152.204 21.92 152.012 21.52C151.836 21.104 151.508 20.808 151.028 20.632C150.564 20.44 149.884 20.344 148.988 20.344C147.372 20.344 145.692 20.536 143.948 20.92V19.192C145.724 18.808 147.42 18.616 149.036 18.616C150.54 18.616 151.668 18.768 152.42 19.072C153.188 19.376 153.692 19.816 153.932 20.392C154.188 20.968 154.316 21.768 154.316 22.792V28.96L155.948 29.68ZM145.388 27.328C145.388 28.112 145.58 28.672 145.964 29.008C146.364 29.344 147.084 29.512 148.124 29.512C148.892 29.512 149.628 29.376 150.332 29.104C151.052 28.816 151.708 28.424 152.3 27.928V25.528C151.404 25.272 150.324 25.144 149.06 25.144C147.668 25.144 146.708 25.32 146.18 25.672C145.652 26.024 145.388 26.576 145.388 27.328ZM179.279 14.68V16.048L177.743 16.744L172.439 24.64V28.96L174.455 29.68V31H168.359V29.68L170.375 28.96V24.64L165.095 16.744L163.535 16.048V14.68H169.151V16.048L167.471 16.744L171.575 22.984L175.679 16.744L174.023 16.048V14.68H179.279ZM192.907 29.632V31H190.243L189.619 30.016C188.691 30.48 187.827 30.816 187.027 31.024C186.243 31.232 185.443 31.336 184.627 31.336C183.603 31.336 182.795 31.184 182.203 30.88C181.627 30.56 181.211 30.064 180.955 29.392C180.699 28.704 180.571 27.784 180.571 26.632V20.992L178.939 20.272V18.952H182.587V26.896C182.587 27.84 182.811 28.528 183.259 28.96C183.723 29.376 184.395 29.584 185.275 29.584C185.835 29.584 186.379 29.512 186.907 29.368C187.451 29.224 188.235 28.968 189.259 28.6V20.944L187.627 20.272V18.952H191.275V28.96L192.907 29.632ZM207.894 29.68V31H205.038L204.414 29.272C203.742 29.944 203.022 30.44 202.254 30.76C201.502 31.08 200.63 31.24 199.638 31.24C198.55 31.24 197.654 31.056 196.95 30.688C196.262 30.304 195.742 29.664 195.39 28.768C195.038 27.856 194.862 26.608 194.862 25.024C194.862 22.768 195.294 21.136 196.158 20.128C197.022 19.12 198.254 18.616 199.854 18.616C200.59 18.616 201.31 18.72 202.014 18.928C202.718 19.136 203.462 19.472 204.246 19.936V16L202.614 15.328V13.96H206.262V28.96L207.894 29.68ZM196.974 25.216C196.974 26.32 197.078 27.184 197.286 27.808C197.51 28.432 197.846 28.872 198.294 29.128C198.742 29.368 199.326 29.488 200.046 29.488C201.534 29.488 202.934 28.968 204.246 27.928V21.352C203.238 20.984 202.47 20.728 201.942 20.584C201.43 20.44 200.894 20.368 200.334 20.368C199.134 20.368 198.27 20.768 197.742 21.568C197.23 22.352 196.974 23.568 196.974 25.216ZM223.806 29.68V31H220.158V23.056C220.158 22.112 219.926 21.432 219.462 21.016C219.014 20.584 218.35 20.368 217.47 20.368C216.91 20.368 216.358 20.44 215.814 20.584C215.286 20.728 214.51 20.984 213.486 21.352V28.96L215.118 29.68V31H209.838V29.68L211.47 28.96V16L209.838 15.328V13.96H213.486V19.792C214.302 19.376 215.078 19.08 215.814 18.904C216.566 18.712 217.334 18.616 218.118 18.616C219.126 18.616 219.926 18.776 220.518 19.096C221.11 19.4 221.534 19.896 221.79 20.584C222.046 21.256 222.174 22.168 222.174 23.32V28.96L223.806 29.68ZM238.448 29.68V31H235.592L234.968 29.272C234.312 29.944 233.6 30.44 232.832 30.76C232.08 31.08 231.232 31.24 230.288 31.24C228.752 31.24 227.616 30.944 226.88 30.352C226.144 29.76 225.776 28.8 225.776 27.472C225.776 26.064 226.216 25.048 227.096 24.424C227.976 23.784 229.392 23.464 231.344 23.464C232.112 23.464 232.784 23.536 233.36 23.68C233.952 23.808 234.432 23.968 234.8 24.16V23.224C234.8 22.488 234.704 21.92 234.512 21.52C234.336 21.104 234.008 20.808 233.528 20.632C233.064 20.44 232.384 20.344 231.488 20.344C229.872 20.344 228.192 20.536 226.448 20.92V19.192C228.224 18.808 229.92 18.616 231.536 18.616C233.04 18.616 234.168 18.768 234.92 19.072C235.688 19.376 236.192 19.816 236.432 20.392C236.688 20.968 236.816 21.768 236.816 22.792V28.96L238.448 29.68ZM227.888 27.328C227.888 28.112 228.08 28.672 228.464 29.008C228.864 29.344 229.584 29.512 230.624 29.512C231.392 29.512 232.128 29.376 232.832 29.104C233.552 28.816 234.208 28.424 234.8 27.928V25.528C233.904 25.272 232.824 25.144 231.56 25.144C230.168 25.144 229.208 25.32 228.68 25.672C228.152 26.024 227.888 26.576 227.888 27.328ZM251.183 24.52V28.936L252.959 29.68V31H247.343V29.68L249.119 28.936V16.744L247.343 16.048V14.68H256.895C258.447 14.68 259.623 15.096 260.423 15.928C261.223 16.76 261.623 17.984 261.623 19.6C261.623 21.216 261.199 22.44 260.351 23.272C259.519 24.104 258.295 24.52 256.679 24.52H251.183ZM259.463 19.6C259.463 18.48 259.239 17.672 258.791 17.176C258.359 16.664 257.663 16.408 256.703 16.408H251.183V22.792H256.463C257.535 22.792 258.303 22.544 258.767 22.048C259.231 21.552 259.463 20.736 259.463 19.6ZM268.992 18.616C270.624 18.616 271.944 19.128 272.952 20.152C273.976 21.16 274.488 22.664 274.488 24.664V25.624H265.08C265.16 26.696 265.352 27.52 265.656 28.096C265.976 28.656 266.432 29.048 267.024 29.272C267.632 29.496 268.464 29.608 269.52 29.608C271.04 29.608 272.544 29.424 274.032 29.056V30.784C273.408 30.944 272.68 31.072 271.848 31.168C271.016 31.28 270.224 31.336 269.472 31.336C267.344 31.336 265.728 30.856 264.624 29.896C263.52 28.936 262.968 27.296 262.968 24.976C262.968 22.816 263.512 21.216 264.6 20.176C265.688 19.136 267.152 18.616 268.992 18.616ZM268.872 20.344C267.624 20.344 266.712 20.624 266.136 21.184C265.56 21.744 265.216 22.656 265.104 23.92H272.352C272.256 22.736 271.928 21.848 271.368 21.256C270.808 20.648 269.976 20.344 268.872 20.344ZM284.707 18.568C285.411 18.568 285.923 18.736 286.243 19.072C286.563 19.408 286.723 19.928 286.723 20.632C286.723 21.928 285.987 22.576 284.515 22.576L283.555 20.416C282.931 20.576 282.299 20.8 281.659 21.088C281.035 21.36 280.475 21.656 279.979 21.976V28.96L282.211 29.68V31H276.331V29.68L277.963 28.96V20.992L276.331 20.32V18.952H278.995L279.907 20.392C280.707 19.8 281.523 19.352 282.355 19.048C283.187 18.728 283.971 18.568 284.707 18.568ZM301.456 29.68V31H298.6L297.976 29.272C297.304 29.944 296.584 30.44 295.816 30.76C295.064 31.08 294.192 31.24 293.2 31.24C292.112 31.24 291.216 31.056 290.512 30.688C289.824 30.304 289.304 29.664 288.952 28.768C288.6 27.856 288.424 26.608 288.424 25.024C288.424 22.768 288.856 21.136 289.72 20.128C290.584 19.12 291.816 18.616 293.416 18.616C294.152 18.616 294.872 18.72 295.576 18.928C296.28 19.136 297.024 19.472 297.808 19.936V16L296.176 15.328V13.96H299.824V28.96L301.456 29.68ZM290.536 25.216C290.536 26.32 290.64 27.184 290.848 27.808C291.072 28.432 291.408 28.872 291.856 29.128C292.304 29.368 292.888 29.488 293.608 29.488C295.096 29.488 296.496 28.968 297.808 27.928V21.352C296.8 20.984 296.032 20.728 295.504 20.584C294.992 20.44 294.456 20.368 293.896 20.368C292.696 20.368 291.832 20.768 291.304 21.568C290.792 22.352 290.536 23.568 290.536 25.216ZM316.097 29.68V31H313.241L312.617 29.272C311.961 29.944 311.249 30.44 310.481 30.76C309.729 31.08 308.881 31.24 307.937 31.24C306.401 31.24 305.265 30.944 304.529 30.352C303.793 29.76 303.425 28.8 303.425 27.472C303.425 26.064 303.865 25.048 304.745 24.424C305.625 23.784 307.041 23.464 308.993 23.464C309.761 23.464 310.433 23.536 311.009 23.68C311.601 23.808 312.081 23.968 312.449 24.16V23.224C312.449 22.488 312.353 21.92 312.161 21.52C311.985 21.104 311.657 20.808 311.177 20.632C310.713 20.44 310.033 20.344 309.137 20.344C307.521 20.344 305.841 20.536 304.097 20.92V19.192C305.873 18.808 307.569 18.616 309.185 18.616C310.689 18.616 311.817 18.768 312.569 19.072C313.337 19.376 313.841 19.816 314.081 20.392C314.337 20.968 314.465 21.768 314.465 22.792V28.96L316.097 29.68ZM305.537 27.328C305.537 28.112 305.729 28.672 306.113 29.008C306.513 29.344 307.233 29.512 308.273 29.512C309.041 29.512 309.777 29.376 310.481 29.104C311.201 28.816 311.857 28.424 312.449 27.928V25.528C311.553 25.272 310.473 25.144 309.209 25.144C307.817 25.144 306.857 25.32 306.329 25.672C305.801 26.024 305.537 26.576 305.537 27.328ZM332.017 29.68V31H328.369V23.056C328.369 22.112 328.137 21.432 327.673 21.016C327.225 20.584 326.561 20.368 325.681 20.368C325.121 20.368 324.569 20.44 324.025 20.584C323.497 20.728 322.721 20.984 321.697 21.352V28.96L323.569 29.68V31H318.049V29.68L319.681 28.96V20.992L318.049 20.32V18.952H320.713L321.337 19.936C322.233 19.472 323.081 19.136 323.881 18.928C324.681 18.72 325.497 18.616 326.329 18.616C327.337 18.616 328.137 18.776 328.729 19.096C329.321 19.4 329.745 19.896 330.001 20.584C330.257 21.256 330.385 22.168 330.385 23.32V28.96L332.017 29.68ZM346.659 29.68V31H343.803L343.179 29.272C342.523 29.944 341.811 30.44 341.043 30.76C340.291 31.08 339.443 31.24 338.499 31.24C336.963 31.24 335.827 30.944 335.091 30.352C334.355 29.76 333.987 28.8 333.987 27.472C333.987 26.064 334.427 25.048 335.307 24.424C336.187 23.784 337.603 23.464 339.555 23.464C340.323 23.464 340.995 23.536 341.571 23.68C342.163 23.808 342.643 23.968 343.011 24.16V23.224C343.011 22.488 342.915 21.92 342.723 21.52C342.547 21.104 342.219 20.808 341.739 20.632C341.275 20.44 340.595 20.344 339.699 20.344C338.083 20.344 336.403 20.536 334.659 20.92V19.192C336.435 18.808 338.131 18.616 339.747 18.616C341.251 18.616 342.379 18.768 343.131 19.072C343.899 19.376 344.403 19.816 344.643 20.392C344.899 20.968 345.027 21.768 345.027 22.792V28.96L346.659 29.68ZM336.099 27.328C336.099 28.112 336.291 28.672 336.675 29.008C337.075 29.344 337.795 29.512 338.835 29.512C339.603 29.512 340.339 29.376 341.043 29.104C341.763 28.816 342.419 28.424 343.011 27.928V25.528C342.115 25.272 341.035 25.144 339.771 25.144C338.379 25.144 337.419 25.32 336.891 25.672C336.363 26.024 336.099 26.576 336.099 27.328Z" fill="black"/>
</svg>
